
<svg width="16" height="16" viewBox="0 0 16 16" fill="none" xmlns="http://www.w3.org/2000/svg">
<mask id="mask0_4909_4897" style="mask-type:alpha" maskUnits="userSpaceOnUse" x="0" y="0" width="16" height="16">
<rect width="16" height="16" fill="#D9D9D9"/>
</mask>
<g mask="url(#mask0_4909_4897)">
<path d="M7.56717 11.032H8.43384V8.43201H11.0338V7.56534H8.43384V4.96534H7.56717V7.56534H4.96717V8.43201H7.56717V11.032ZM8.00617 14.0653C7.17162 14.0653 6.38562 13.9075 5.64817 13.5917C4.91073 13.2759 4.26528 12.8414 3.71184 12.2882C3.15839 11.735 2.72367 11.09 2.40767 10.3533C2.09178 9.61678 1.93384 8.82973 1.93384 7.99217C1.93384 7.15462 2.09173 6.3699 2.4075 5.63801C2.72328 4.90612 3.15778 4.26345 3.711 3.71001C4.26423 3.15656 4.90917 2.72184 5.64584 2.40584C6.38239 2.08995 7.16945 1.93201 8.00701 1.93201C8.84456 1.93201 9.62928 2.0899 10.3612 2.40567C11.0931 2.72145 11.7357 3.15595 12.2892 3.70917C12.8426 4.2624 13.2773 4.90601 13.5933 5.64001C13.9092 6.37412 14.0672 7.15845 14.0672 7.99301C14.0672 8.82756 13.9093 9.61356 13.5935 10.351C13.2777 11.0885 12.8432 11.7339 12.29 12.2873C11.7368 12.8408 11.0932 13.2755 10.3592 13.5915C9.62506 13.9074 8.84073 14.0653 8.00617 14.0653ZM8.0005 13.1987C9.44495 13.1987 10.6727 12.6931 11.6838 11.682C12.6949 10.6709 13.2005 9.44312 13.2005 7.99867C13.2005 6.55423 12.6949 5.32645 11.6838 4.31534C10.6727 3.30423 9.44495 2.79867 8.0005 2.79867C6.55606 2.79867 5.32828 3.30423 4.31717 4.31534C3.30606 5.32645 2.8005 6.55423 2.8005 7.99867C2.8005 9.44312 3.30606 10.6709 4.31717 11.682C5.32828 12.6931 6.55606 13.1987 8.0005 13.1987Z" fill="#2B303B"/>
</g>
</svg>
