
<svg width="20" height="20" viewBox="0 0 20 20" fill="none" xmlns="http://www.w3.org/2000/svg">
<mask id="mask0_8766_11533" style="mask-type:alpha" maskUnits="userSpaceOnUse" x="0" y="0" width="20" height="20">
<rect width="20" height="20" fill="#D9D9D9"/>
</mask>
<g mask="url(#mask0_8766_11533)">
<path d="M3.75 17.0837V13.316C3.75 12.9015 3.8975 12.5471 4.1925 12.2528C4.4875 11.9584 4.84215 11.8112 5.25646 11.8112H14.7435C15.1578 11.8112 15.5125 11.9587 15.8075 12.2537C16.1025 12.5487 16.25 12.9033 16.25 13.3176V17.0837H3.75ZM7.62021 10.6574C6.54951 10.6574 5.63681 10.28 4.88208 9.52533C4.12736 8.7706 3.75 7.8579 3.75 6.7872C3.75 5.71651 4.12736 4.8038 4.88208 4.04908C5.63681 3.29435 6.54951 2.91699 7.62021 2.91699H12.3798C13.4505 2.91699 14.3632 3.29435 15.1179 4.04908C15.8726 4.8038 16.25 5.71651 16.25 6.7872C16.25 7.8579 15.8726 8.7706 15.1179 9.52533C14.3632 10.28 13.4505 10.6574 12.3798 10.6574H7.62021ZM5 15.8337H15V13.3176C15 13.2429 14.976 13.1814 14.9279 13.1332C14.8799 13.0852 14.8184 13.0612 14.7435 13.0612H5.25646C5.1816 13.0612 5.12014 13.0852 5.07208 13.1332C5.02403 13.1814 5 13.2429 5 13.3176V15.8337ZM7.62021 9.40741H12.3798C13.1116 9.40741 13.7313 9.15366 14.2388 8.64616C14.7463 8.13866 15 7.51901 15 6.7872C15 6.0554 14.7463 5.43574 14.2388 4.92824C13.7313 4.42074 13.1116 4.16699 12.3798 4.16699H7.62021C6.8884 4.16699 6.26875 4.42074 5.76125 4.92824C5.25375 5.43574 5 6.0554 5 6.7872C5 7.51901 5.25375 8.13866 5.76125 8.64616C6.26875 9.15366 6.8884 9.40741 7.62021 9.40741ZM7.62 7.50824C7.82417 7.50824 7.99542 7.43921 8.13375 7.30116C8.27208 7.16296 8.34125 6.99172 8.34125 6.78741C8.34125 6.58324 8.27222 6.41199 8.13417 6.27366C7.99597 6.13519 7.82472 6.06595 7.62042 6.06595C7.41625 6.06595 7.245 6.13505 7.10667 6.27324C6.96819 6.41144 6.89896 6.58269 6.89896 6.78699C6.89896 6.99116 6.96806 7.16241 7.10625 7.30074C7.24444 7.43908 7.41569 7.50824 7.62 7.50824ZM12.3796 7.50824C12.5837 7.50824 12.755 7.43921 12.8933 7.30116C13.0318 7.16296 13.101 6.99172 13.101 6.78741C13.101 6.58324 13.0319 6.41199 12.8938 6.27366C12.7556 6.13519 12.5843 6.06595 12.38 6.06595C12.1758 6.06595 12.0046 6.13505 11.8663 6.27324C11.7279 6.41144 11.6588 6.58269 11.6588 6.78699C11.6588 6.99116 11.7278 7.16241 11.8658 7.30074C12.004 7.43908 12.1753 7.50824 12.3796 7.50824Z" fill="#181D27"/>
</g>
</svg>
