
<svg width="24" height="24" viewBox="0 0 24 24" fill="none" xmlns="http://www.w3.org/2000/svg">
<path d="M13.1486 5.27037V8.30998H3.01367V7.21076C3.01367 6.13912 3.87898 5.27037 4.94637 5.27037H8.55192C8.56989 4.01338 9.59054 3 10.8469 3C12.1033 3 13.1242 4.01338 13.1422 5.27037H13.1486Z" fill="#4285F4"/>
<path d="M21 13.1139C21 14.3041 20.1092 15.2853 18.9607 15.4224H15.6474V8.32181H13.1323V5.29199H16.8321C17.8517 5.29199 18.6783 6.12182 18.6783 7.14551V10.7891H18.6844C19.9631 10.7891 21 11.8301 21 13.1139Z" fill="#EA4336"/>
<path d="M18.6736 15.415V19.1308C18.6736 20.163 17.8402 20.9996 16.8123 20.9996H8.26758V17.9643H15.6507V15.415H18.6736Z" fill="#FABD08"/>
<path d="M5.89301 17.9524H8.3033V20.9982H4.90882C3.85453 20.9982 3 20.1403 3 19.0818V15.5947C3.10091 15.6075 3.20362 15.614 3.30787 15.614C4.66643 15.614 5.76797 14.5081 5.76797 13.1438C5.76797 11.7796 4.66643 10.6739 3.30787 10.6739C3.20362 10.6739 3.10091 10.6804 3 10.6933V8.30664H5.96131C7.00585 8.91116 7.8347 9.84926 8.3033 10.9758C8.57676 11.6327 8.72774 12.3537 8.72774 13.1103C8.72774 13.8669 8.57676 14.5877 8.3033 15.2446C7.82443 16.3956 6.96964 17.35 5.89301 17.9524Z" fill="#33A853"/>
</svg>
