
<svg width="20" height="20" viewBox="0 0 20 20" fill="none" xmlns="http://www.w3.org/2000/svg">
<g clip-path="url(#clip0_4939_5195)">
<path d="M15.8334 7.50004L16.875 5.20837L19.1667 4.16671L16.875 3.12504L15.8334 0.833374L14.7917 3.12504L12.5 4.16671L14.7917 5.20837L15.8334 7.50004Z" fill="#0050efff"/>
<path d="M15.8334 12.5L14.7917 14.7917L12.5 15.8334L14.7917 16.875L15.8334 19.1667L16.875 16.875L19.1667 15.8334L16.875 14.7917L15.8334 12.5Z" fill="#0050efff"/>
<path d="M9.58337 7.91671L7.50004 3.33337L5.41671 7.91671L0.833374 10L5.41671 12.0834L7.50004 16.6667L9.58337 12.0834L14.1667 10L9.58337 7.91671ZM8.32504 10.825L7.50004 12.6417L6.67504 10.825L4.85837 10L6.67504 9.17504L7.50004 7.35837L8.32504 9.17504L10.1417 10L8.32504 10.825Z" fill="#0050efff"/>
</g>
<defs>
<clipPath id="clip0_4939_5195">
<rect width="20" height="20" fill="white"/>
</clipPath>
</defs>
</svg>
