
<svg width="20" height="20" viewBox="0 0 20 20" fill="none" xmlns="http://www.w3.org/2000/svg">
<path fill-rule="evenodd" clip-rule="evenodd" d="M10.0228 14.7504C5.93708 14.7504 2.61283 12.1964 2.61283 9.0567C2.61283 5.91698 5.93613 3.36297 10.0218 3.36297C14.1075 3.36297 17.4318 5.91698 17.4318 9.0567C17.4318 12.1964 14.1085 14.7504 10.0228 14.7504ZM16.1665 14.2308V13.456C16.4999 13.165 16.802 12.8528 17.0662 12.5196C16.856 13.1613 16.552 13.7305 16.1665 14.2308ZM15.8104 14.6394C15.7574 14.6954 15.71 14.7569 15.6541 14.811C15.3492 15.103 15.0205 15.3435 14.6834 15.5501V14.475C15.0849 14.2593 15.4628 14.0169 15.8095 13.7489V14.6403L15.8104 14.6394ZM14.3273 15.753C13.7675 16.0467 13.1955 16.2441 12.6661 16.3754V15.2728C13.2523 15.1167 13.8073 14.9074 14.3273 14.6568V15.753ZM12.3109 16.4553C11.8185 16.5553 11.3856 16.6003 11.0636 16.6205V15.5611C11.4908 15.5189 11.9065 15.4491 12.3109 15.3564V16.4553ZM10.7075 16.6334C10.574 16.6352 10.4916 16.6334 10.485 16.6334C9.95933 16.6223 9.46212 16.5865 8.98668 16.5296V15.562C9.32668 15.596 9.67142 15.6152 10.0218 15.6152C10.2529 15.6152 10.4802 15.6051 10.7075 15.5905V16.6352V16.6334ZM8.63153 16.481C8.2167 16.4195 7.81893 16.3423 7.44389 16.245V15.2884C7.8284 15.3876 8.22428 15.4638 8.63058 15.5179L8.63153 16.481ZM7.08873 16.145C6.52995 15.977 6.02327 15.7658 5.56583 15.5152V14.5815C6.04221 14.823 6.55174 15.0249 7.08873 15.1856V16.145ZM5.20783 15.3049C4.85078 15.0782 4.52688 14.8239 4.23991 14.5375V13.7553C4.54108 13.9857 4.86499 14.1978 5.20783 14.3906V15.3049ZM3.88286 14.1473C3.43489 13.6066 3.13278 13.0263 2.93389 12.4645C3.21044 12.8207 3.52866 13.1558 3.88286 13.4633V14.1473ZM18.3135 9.3211C18.3183 9.23297 18.3221 9.14576 18.3221 9.0567C18.3221 5.44051 14.5991 2.5 10.0218 2.5C5.44649 2.5 1.72163 5.44051 1.72163 9.0567C1.72163 9.15218 1.72636 9.24674 1.7311 9.34038L1.72825 9.36058C1.70742 9.48452 1.24051 12.4204 3.24548 14.7615C4.73524 16.5002 7.16355 17.421 10.4518 17.4954C10.4689 17.4963 10.5437 17.5 10.663 17.5C11.4576 17.5 14.2667 17.3559 16.2764 15.4298C17.7443 14.0224 18.4319 11.9972 18.3221 9.41199C18.3221 9.38078 18.3145 9.35323 18.3135 9.3211Z" fill="#333333"/>
<path d="M8.2707 6.77616C8.23396 6.55441 8.5478 6.46375 8.7487 6.63807L9.65694 7.42605C10.0991 7.80967 10.6903 8.04207 11.2753 8.06229L12.477 8.10379C12.7429 8.11296 12.9109 8.39307 12.733 8.53044L11.9288 9.15142C11.5373 9.45376 11.3585 9.90859 11.4393 10.3966L11.6053 11.399C11.642 11.6208 11.3282 11.7114 11.1273 11.5371L10.219 10.7491C9.77685 10.3655 9.1857 10.1331 8.60065 10.1129L7.39895 10.0714C7.13312 10.0622 6.96506 9.7821 7.14297 9.64474L7.94717 9.02375C8.33869 8.72142 8.5175 8.26659 8.43669 7.77857L8.2707 6.77616Z" fill="#181D27"/>
</svg>
