
<svg width="30" height="30" viewBox="0 0 30 30" fill="none" xmlns="http://www.w3.org/2000/svg">
<mask id="mask0_5032_11892" style="mask-type:alpha" maskUnits="userSpaceOnUse" x="0" y="0" width="30" height="30">
<rect width="30" height="30" fill="#D9D9D9"/>
</mask>
<g mask="url(#mask0_5032_11892)">
<path d="M6.33031 26.875C5.79302 26.875 5.33281 26.6835 4.94969 26.3003C4.56656 25.9172 4.375 25.457 4.375 24.9197V7.27564C4.375 6.73835 4.56656 6.27825 4.94969 5.89533C5.33281 5.51221 5.79302 5.32064 6.33031 5.32064H8.44563V2.98096H10.1362V5.32064H19.9119V2.98096H21.5625V5.32064H23.6697C24.207 5.32064 24.6672 5.51221 25.0503 5.89533C25.4334 6.27825 25.625 6.73835 25.625 7.27564V15.4969H24.0544V12.7325H5.94562V24.9197C5.94562 25.016 5.98563 25.1042 6.06563 25.1844C6.14583 25.2644 6.23406 25.3044 6.33031 25.3044H15.5441V26.875H6.33031ZM23.75 29.8078C22.3254 29.8078 21.0715 29.3699 19.9881 28.4941C18.9048 27.6182 18.2013 26.5176 17.8775 25.1922H19.4303C19.7332 26.117 20.2729 26.8691 21.0494 27.4485C21.8258 28.0276 22.726 28.3172 23.75 28.3172C25.0144 28.3172 26.0917 27.8721 26.9819 26.9819C27.8721 26.0917 28.3172 25.0144 28.3172 23.75C28.3172 22.4856 27.8721 21.4084 26.9819 20.5181C26.0917 19.6279 25.0144 19.1828 23.75 19.1828C23.0656 19.1828 22.419 19.3302 21.81 19.625C21.201 19.9198 20.6706 20.3172 20.2188 20.8172H22.3078V22.3078H17.6922V17.6922H19.1828V19.7381C19.7611 19.1242 20.4454 18.6297 21.2356 18.2547C22.0256 17.8797 22.8638 17.6922 23.75 17.6922C25.4231 17.6922 26.851 18.2836 28.0338 19.4663C29.2165 20.649 29.8078 22.0769 29.8078 23.75C29.8078 25.4231 29.2165 26.8511 28.0338 28.0338C26.851 29.2165 25.4231 29.8078 23.75 29.8078ZM5.94562 11.1619H24.0544V7.27564C24.0544 7.1796 24.0144 7.09148 23.9344 7.01127C23.8542 6.93106 23.7659 6.89096 23.6697 6.89096H6.33031C6.23406 6.89096 6.14583 6.93106 6.06563 7.01127C5.98563 7.09148 5.94562 7.1796 5.94562 7.27564V11.1619Z" fill="#181D27"/>
</g>
</svg>
