
<svg width="19" height="25" viewBox="0 0 19 25" fill="none" xmlns="http://www.w3.org/2000/svg">
<path d="M1.09375 24.1875L0 23.0625L4.15219 18.9103H0.333125V17.3397H6.81625V23.8228H5.24594V20.0353L1.09375 24.1875ZM9.25219 23.75V22.1794H16.9613C17.0735 22.1794 17.1657 22.1433 17.2378 22.0713C17.3099 21.9992 17.3459 21.907 17.3459 21.7947V7.5H11.4166V1.57063H2.12188C2.00958 1.57063 1.9174 1.60667 1.84531 1.67875C1.77323 1.75083 1.73719 1.84302 1.73719 1.95531V14.9038H0.166563V1.95531C0.166563 1.41969 0.358541 0.959896 0.7425 0.575937C1.12646 0.191979 1.58625 0 2.12188 0H12.3541L18.9166 6.5625V21.7947C18.9166 22.3303 18.7246 22.7901 18.3406 23.1741C17.9567 23.558 17.4969 23.75 16.9613 23.75H9.25219Z" fill="#000000"/>
</svg>
