
<svg width="40" height="40" viewBox="0 0 40 40" fill="none" xmlns="http://www.w3.org/2000/svg">
<path d="M30.5264 9.47363H9.47375V30.5263H30.5264V9.47363Z" fill="white"/>
<path d="M30.5264 40.0001L40.0001 30.5264H30.5264V40.0001Z" fill="#EA4335"/>
<path d="M40.0001 9.47363H30.5264V30.5263H40.0001V9.47363Z" fill="#FBBC04"/>
<path d="M30.5264 30.5264H9.47375V40.0001H30.5264V30.5264Z" fill="#34A853"/>
<path d="M0 30.5264V36.8422C0 38.5869 1.41316 40.0001 3.1579 40.0001H9.4737V30.5264H0Z" fill="#188038"/>
<path d="M40.0001 9.47369V3.1579C40.0001 1.41316 38.5869 0 36.8422 0H30.5264V9.47369H40.0001Z" fill="#1967D2"/>
<path d="M30.5264 0H3.1579C1.41316 0 0 1.41316 0 3.1579V30.5263H9.4737V9.47369H30.5264V0Z" fill="#4285F4"/>
<path d="M13.7923 25.8053C13.0054 25.2738 12.4607 24.4974 12.1633 23.4711L13.9896 22.7185C14.1554 23.3501 14.4449 23.8396 14.8581 24.1869C15.2686 24.5343 15.7686 24.7053 16.3528 24.7053C16.9502 24.7053 17.4633 24.5238 17.8923 24.1606C18.3212 23.7974 18.537 23.3343 18.537 22.7738C18.537 22.2001 18.3107 21.7317 17.8581 21.3685C17.4054 21.0053 16.837 20.8238 16.1581 20.8238H15.1028V19.0159H16.0502C16.6344 19.0159 17.1265 18.858 17.5265 18.5422C17.9265 18.2264 18.1265 17.7948 18.1265 17.2448C18.1265 16.7553 17.9475 16.3659 17.5897 16.0738C17.2318 15.7817 16.7791 15.6343 16.2291 15.6343C15.6923 15.6343 15.266 15.7764 14.9502 16.0632C14.6346 16.3508 14.3973 16.714 14.2607 17.1185L12.4528 16.3659C12.6923 15.6869 13.1318 15.0869 13.7765 14.5685C14.4212 14.0501 15.2449 13.7896 16.2449 13.7896C16.9844 13.7896 17.6502 13.9317 18.2397 14.2185C18.8291 14.5053 19.2923 14.9027 19.6265 15.408C19.9607 15.9159 20.1265 16.4843 20.1265 17.1159C20.1265 17.7606 19.9712 18.3053 19.6607 18.7527C19.3502 19.2001 18.9686 19.5422 18.516 19.7817V19.8896C19.1004 20.1305 19.6081 20.5263 19.9844 21.0343C20.366 21.5474 20.5581 22.1606 20.5581 22.8764C20.5581 23.5922 20.3765 24.2317 20.0133 24.7922C19.6502 25.3527 19.1475 25.7948 18.5107 26.1159C17.8712 26.4369 17.1528 26.6001 16.3554 26.6001C15.4318 26.6027 14.5791 26.3369 13.7923 25.8053ZM25.0107 16.7422L23.0055 18.1922L22.0028 16.6711L25.6002 14.0764H26.9791V26.3159H25.0107V16.7422Z" fill="#4285F4"/>
</svg>
