
<svg width="24" height="24" viewBox="0 0 24 24" fill="none" xmlns="http://www.w3.org/2000/svg">
<path d="M3 4C3 1.79086 4.79086 0 7 0H20C22.2091 0 24 1.79086 24 4V16C24 18.2091 22.2091 20 20 20H7C4.79086 20 3 18.2091 3 16V4Z" fill="url(#paint0_linear_529_564)"/>
<path d="M0 8C0 5.79086 1.79086 4 4 4H16C18.2091 4 20 5.79086 20 8V20C20 22.2091 18.2091 24 16 24H4C1.79086 24 0 22.2091 0 20V8Z" fill="url(#paint1_radial_529_564)"/>
<path fill-rule="evenodd" clip-rule="evenodd" d="M16 5H4C2.34315 5 1 6.34315 1 8V20C1 21.6569 2.34315 23 4 23H16C17.6569 23 19 21.6569 19 20V8C19 6.34315 17.6569 5 16 5ZM4 4C1.79086 4 0 5.79086 0 8V20C0 22.2091 1.79086 24 4 24H16C18.2091 24 20 22.2091 20 20V8C20 5.79086 18.2091 4 16 4H4Z" fill="white"/>
<path d="M9.28571 14.7143H5.71429C5.5119 14.7143 5.34226 14.6458 5.20536 14.5089C5.06845 14.372 5 14.2024 5 14C5 13.7976 5.06845 13.628 5.20536 13.4911C5.34226 13.3542 5.5119 13.2857 5.71429 13.2857H9.28571V9.71429C9.28571 9.5119 9.35417 9.34226 9.49107 9.20536C9.62798 9.06845 9.79762 9 10 9C10.2024 9 10.372 9.06845 10.5089 9.20536C10.6458 9.34226 10.7143 9.5119 10.7143 9.71429V13.2857H14.2857C14.4881 13.2857 14.6577 13.3542 14.7946 13.4911C14.9315 13.628 15 13.7976 15 14C15 14.2024 14.9315 14.372 14.7946 14.5089C14.6577 14.6458 14.4881 14.7143 14.2857 14.7143H10.7143V18.2857C10.7143 18.4881 10.6458 18.6577 10.5089 18.7946C10.372 18.9315 10.2024 19 10 19C9.79762 19 9.62798 18.9315 9.49107 18.7946C9.35417 18.6577 9.28571 18.4881 9.28571 18.2857V14.7143Z" fill="white"/>
<defs>
<linearGradient id="paint0_linear_529_564" x1="2.72316" y1="-10.4375" x2="33.0336" y2="18.5071" gradientUnits="userSpaceOnUse">
<stop stop-color="#7341FF"/>
<stop offset="0.3593" stop-color="#B487FF"/>
<stop offset="1" stop-color="#FFC8FF"/>
</linearGradient>
<radialGradient id="paint1_radial_529_564" cx="0" cy="0" r="1" gradientUnits="userSpaceOnUse" gradientTransform="translate(21.6751 -9.73966) scale(37.3197 41.4109)">
<stop offset="0.5561" stop-color="#6D4AFF"/>
<stop offset="1" stop-color="#FF50C3"/>
</radialGradient>
</defs>
</svg>
