
<svg width="20" height="20" viewBox="0 0 20 20" fill="none" xmlns="http://www.w3.org/2000/svg">
<path d="M10.957 4.39197V6.92498H2.51123V6.00897C2.51123 5.11593 3.23232 4.39197 4.12181 4.39197H7.12643C7.14141 3.34448 7.99196 2.5 9.03893 2.5C10.0859 2.5 10.9367 3.34448 10.9516 4.39197H10.957Z" fill="#4285F4"/>
<path d="M17.5002 10.9284C17.5002 11.9203 16.7579 12.7379 15.8008 12.8522H13.0397V6.935H10.9438V4.41016H14.027C14.8767 4.41016 15.5655 5.10168 15.5655 5.95475V8.9911H15.5706C16.6362 8.9911 17.5002 9.85857 17.5002 10.9284Z" fill="#EA4336"/>
<path d="M15.5614 12.8467V15.9432C15.5614 16.8033 14.8668 17.5005 14.0103 17.5005H6.88965V14.9711H13.0423V12.8467H15.5614Z" fill="#FABD08"/>
<path d="M4.91084 14.961H6.91942V17.4992H4.09068C3.21211 17.4992 2.5 16.7842 2.5 15.9021V12.9962C2.58409 13.0069 2.66968 13.0123 2.75655 13.0123C3.88869 13.0123 4.80664 12.0907 4.80664 10.9538C4.80664 9.81699 3.88869 8.8956 2.75655 8.8956C2.66968 8.8956 2.58409 8.90097 2.5 8.91171V6.92285H4.96776C5.83821 7.42662 6.52891 8.20837 6.91942 9.14716C7.1473 9.69453 7.27312 10.2954 7.27312 10.9259C7.27312 11.5564 7.1473 12.1571 6.91942 12.7045C6.52036 13.6637 5.80804 14.4589 4.91084 14.961Z" fill="#33A853"/>
</svg>
