
<svg width="18" height="18" viewBox="0 0 18 18" fill="none" xmlns="http://www.w3.org/2000/svg">
<path d="M15.75 6.375C14.6625 6.375 14.055 7.455 14.3025 8.2575L11.64 10.9275C11.415 10.86 11.085 10.86 10.86 10.9275L8.9475 9.015C9.2025 8.2125 8.595 7.125 7.5 7.125C6.4125 7.125 5.7975 8.205 6.0525 9.015L2.6325 12.4275C1.83 12.18 0.75 12.7875 0.75 13.875C0.75 14.7 1.425 15.375 2.25 15.375C3.3375 15.375 3.945 14.295 3.6975 13.4925L7.11 10.0725C7.335 10.14 7.665 10.14 7.89 10.0725L9.8025 11.985C9.5475 12.7875 10.155 13.875 11.25 13.875C12.3375 13.875 12.9525 12.795 12.6975 11.985L15.3675 9.3225C16.17 9.57 17.25 8.9625 17.25 7.875C17.25 7.05 16.575 6.375 15.75 6.375Z" fill="#181D27"/>
<path d="M11.25 7.125L11.955 5.5725L13.5 4.875L11.955 4.1775L11.25 2.625L10.56 4.1775L9 4.875L10.56 5.5725L11.25 7.125Z" fill="#181D27"/>
<path d="M2.625 8.625L3 7.125L4.5 6.75L3 6.375L2.625 4.875L2.25 6.375L0.75 6.75L2.25 7.125L2.625 8.625Z" fill="#181D27"/>
</svg>

