
<svg width="70" height="83" viewBox="0 0 70 83" fill="none" xmlns="http://www.w3.org/2000/svg">
<g clip-path="url(#clip0_5067_2626)">
<path d="M21.0453 58.646C20.6961 66.3125 20.3485 73.9773 19.9993 81.6438L23.3501 81.5307L22.8108 58.0918L21.0437 58.646H21.0453Z" fill="#C6B8FF"/>
<path d="M19.9993 82.0836C19.8807 82.0836 19.7686 82.0367 19.6842 81.9527C19.5981 81.8654 19.551 81.7459 19.5575 81.6231L20.6035 58.6252C20.6116 58.4411 20.7351 58.2811 20.9121 58.2262L22.6776 57.672C22.8108 57.6316 22.9554 57.6542 23.0675 57.7334C23.1812 57.8142 23.2494 57.9434 23.2526 58.0808L23.7919 81.5213C23.7968 81.762 23.6067 81.9624 23.3647 81.9705L20.0139 82.0836C20.0139 82.0836 20.0041 82.0836 19.9993 82.0836ZM21.4725 58.9742L20.4622 81.1901L22.8985 81.1093L22.382 58.6899L21.4725 58.9758V58.9742Z" fill="#C6B8FF"/>
<path d="M49.3053 63.9043C49.0666 69.8937 48.8278 75.8831 48.5874 81.8725L51.2934 81.7998L50.9084 63.9802L49.3053 63.9043Z" fill="#C6B8FF"/>
<path d="M48.5891 82.3116C48.4706 82.3116 48.3585 82.2648 48.274 82.1808C48.1879 82.0951 48.1425 81.9756 48.1473 81.8544L48.8652 63.8862C48.8701 63.7699 48.9221 63.6584 49.0082 63.5792C49.0943 63.5001 49.1998 63.4581 49.3282 63.4645L50.9313 63.5405C51.1635 63.5518 51.3471 63.7392 51.352 63.9702L51.7369 81.7898C51.7418 82.0321 51.5501 82.2325 51.3065 82.2389L48.6005 82.3116H48.5891ZM49.7293 64.3645L49.0488 81.4198L50.8419 81.3713L50.4749 64.3984L49.7277 64.3628L49.7293 64.3645Z" fill="#C6B8FF"/>
<path d="M31.27 23.3057L31.1141 27.8539L37.3674 25.7551L47.9201 31.2371L37.9537 27.2318L28.3398 33.1808L31.27 23.3057Z" fill="#C6B8FF"/>
<path d="M28.3398 33.6199C28.2456 33.6199 28.1514 33.5892 28.0718 33.5294C27.9256 33.4179 27.8639 33.2305 27.9159 33.0544L30.8476 23.1792C30.911 22.966 31.1254 22.8335 31.343 22.869C31.5623 22.9046 31.7215 23.0968 31.7134 23.3182L31.5786 27.233L37.2277 25.3362C37.3414 25.2974 37.4664 25.3071 37.5736 25.3621L48.1263 30.8441C48.3359 30.9524 48.422 31.206 48.3229 31.4177C48.2238 31.631 47.9753 31.7295 47.756 31.6407L37.9976 27.7194L28.5737 33.5504C28.5022 33.594 28.421 33.6166 28.3398 33.6166V33.6199ZM30.7096 26.7467L29.0918 32.1965L37.7198 26.8582C37.84 26.7839 37.9878 26.7709 38.1194 26.8243L39.6738 27.4479L37.33 26.2313L31.2553 28.2703C31.1189 28.3155 30.9662 28.2929 30.8509 28.2073C30.734 28.1217 30.6674 27.9843 30.6722 27.8389L30.7096 26.7467Z" fill="#C6B8FF"/>
<path d="M32.3469 56.1436C32.1065 56.1436 31.91 55.953 31.9051 55.7139C31.9002 55.4715 32.0935 55.2696 32.3372 55.2647L40.0669 55.0967H40.0767C40.3171 55.0967 40.5136 55.2873 40.5185 55.5265C40.5234 55.7688 40.3301 55.9708 40.0864 55.9756L32.3567 56.1436H32.3469Z" fill="#C6B8FF"/>
<path d="M63.4608 77.9069C63.4608 77.9069 63.4495 77.9069 63.4446 77.9069C60.7175 77.8067 57.9514 77.7583 55.2064 77.7696C54.9628 77.7696 54.7646 77.5741 54.7646 77.3317C54.7646 77.0894 54.9612 76.8922 55.2048 76.8906C57.9514 76.8777 60.7386 76.9294 63.4787 77.0296C63.7223 77.0393 63.9124 77.2428 63.9043 77.4852C63.8961 77.7227 63.6996 77.9085 63.4625 77.9085L63.4608 77.9069Z" fill="#C6B8FF"/>
<path d="M9.07637 72.3449C8.10832 72.3449 7.14027 72.3304 6.17872 72.3029C5.93508 72.2948 5.74342 72.0929 5.74992 71.8505C5.75804 71.6082 5.96432 71.4159 6.2047 71.424C9.25666 71.5112 12.3557 71.4595 15.4125 71.2656C15.6545 71.2495 15.8657 71.4337 15.8819 71.676C15.8982 71.9184 15.713 72.1268 15.4694 72.143C13.3497 72.2771 11.209 72.3433 9.07799 72.3433L9.07637 72.3449Z" fill="#C6B8FF"/>
<path d="M23.4394 81.9962C23.0853 81.9962 22.7914 81.7183 22.7767 81.3628C22.244 68.1626 22.0085 54.7717 22.0767 41.5617C22.0767 41.384 22.1498 41.2143 22.2781 41.0916C22.4064 40.9671 22.5899 40.8928 22.7572 40.9057L49.7116 41.6296C50.0738 41.6393 50.3613 41.9366 50.3564 42.2969C50.1923 55.2305 49.7798 68.3403 49.1285 81.2626C49.1106 81.6262 48.802 81.8976 48.4333 81.8879C48.0678 81.8701 47.7852 81.5599 47.8047 81.1964C48.443 68.5067 48.854 55.6361 49.0229 42.9302L23.3988 42.2419C23.342 55.2144 23.5775 68.3532 24.1005 81.3095C24.1151 81.673 23.8309 81.98 23.4638 81.9946C23.454 81.9946 23.4459 81.9946 23.4362 81.9946L23.4394 81.9962Z" fill="#7D5DF8"/>
<path d="M27.3035 34.2171C27.1443 34.2171 26.9852 34.159 26.8601 34.0491C26.6473 33.8601 26.5807 33.5563 26.6944 33.2978C28.2228 29.7723 29.2087 26.7946 29.8633 23.7183C26.2494 21.6292 23.2656 19.5837 20.5028 17.3056C20.2965 17.1343 20.2137 16.8565 20.2933 16.6012C20.3729 16.3459 20.6019 16.1633 20.8699 16.1407C22.5867 15.9937 24.2808 15.8838 26.0756 15.7659C28.075 15.635 30.1378 15.5009 32.3468 15.307L37.0441 2.51229C37.1448 2.24085 37.4225 2.07282 37.7003 2.07928C37.991 2.09382 38.2379 2.29578 38.3094 2.5753C39.3083 6.49175 40.3332 10.5148 41.1015 14.5185L51.7159 13.882C51.992 13.8626 52.2568 14.0257 52.3656 14.2826C52.476 14.5395 52.4094 14.8384 52.2032 15.0259L52.1658 15.0598C49.6417 17.3557 47.0348 19.7275 44.3304 22.1139C45.5909 24.9382 46.9 27.6929 48.2806 30.6028L49.0164 32.1555C49.1333 32.4011 49.0862 32.6919 48.8994 32.889C48.7127 33.0861 48.4235 33.1491 48.1702 33.049C44.7609 31.6886 41.4896 30.0308 37.9017 27.8432C34.6094 29.9501 31.2114 32.1151 27.6267 34.1283C27.5244 34.1864 27.4123 34.2139 27.3003 34.2139L27.3035 34.2171ZM22.6387 17.3234C25.0929 19.2331 27.768 21.0007 30.9386 22.8135C31.1854 22.9541 31.3154 23.2368 31.2585 23.5147C30.6966 26.3083 29.8812 28.992 28.6662 32.0165C31.7312 30.2296 34.6727 28.3457 37.5314 26.5167C37.7458 26.3794 38.0268 26.3729 38.2444 26.507C41.3418 28.4168 44.1891 29.921 47.0819 31.1715C45.625 28.1017 44.2509 25.2048 42.9222 22.2109C42.8053 21.9491 42.8735 21.6405 43.0895 21.4515C45.4382 19.385 47.7137 17.3266 49.9276 15.3151L40.5996 15.8741C40.2601 15.8903 39.9677 15.6624 39.9076 15.3361C39.2644 11.8801 38.4166 8.39181 37.5525 4.97784L33.448 16.1552C33.3603 16.3944 33.141 16.5624 32.8844 16.5866C30.5 16.8015 28.2943 16.9453 26.1617 17.0859C24.9532 17.165 23.7903 17.241 22.6387 17.3266V17.3234Z" fill="#7D5DF8"/>
<path d="M28.2471 12.0449C28.0555 12.0449 27.8671 11.9641 27.7355 11.8057C26.6262 10.4696 25.5801 9.05583 24.6267 7.60493C24.4269 7.29956 24.513 6.89079 24.82 6.69206C25.127 6.49333 25.5363 6.57896 25.7377 6.88433C26.6635 8.29483 27.6803 9.66818 28.7588 10.9672C28.9927 11.2483 28.9521 11.6636 28.6695 11.8962C28.546 11.998 28.3966 12.0481 28.2471 12.0481V12.0449Z" fill="#7D5DF8"/>
<path d="M45.4789 7.24938C45.3652 7.24938 45.2499 7.22029 45.146 7.1589C44.8292 6.97471 44.7237 6.57078 44.9072 6.25734L48.3863 0.326113C48.5715 0.0110522 48.9775 -0.0939681 49.2927 0.0886057C49.6094 0.272795 49.715 0.67672 49.5314 0.990165L46.0523 6.92139C45.9288 7.13143 45.7063 7.24938 45.4789 7.24938Z" fill="#7D5DF8"/>
<path d="M47.3531 8.48104C47.1095 8.48104 46.8756 8.34693 46.7587 8.11589C46.5963 7.78952 46.7294 7.39367 47.0559 7.23049L50.397 5.57763C50.7251 5.41444 51.123 5.54693 51.2854 5.87492C51.4479 6.20129 51.3147 6.59713 50.9866 6.7587L47.6471 8.41156C47.5529 8.45842 47.4506 8.48104 47.3515 8.48104H47.3531Z" fill="#7D5DF8"/>
<path d="M68.2881 82.9998H68.2833L1.40344 82.4521C1.04773 82.4488 0.758614 82.1677 0.74562 81.8139L9.27866e-05 59.27C-0.0112769 58.9113 0.266469 58.6092 0.627051 58.5898L22.0622 57.4168C22.4179 57.3991 22.7411 57.6753 22.7606 58.0389C22.7801 58.4024 22.5007 58.7142 22.1353 58.7336L1.34821 59.8711L2.05151 81.1385L67.6628 81.6749L68.6357 65.1011L49.6776 64.5614C49.3121 64.5517 49.023 64.248 49.0344 63.8829C49.0441 63.5193 49.3495 63.2301 49.7165 63.243L69.3585 63.8021C69.5372 63.8069 69.7077 63.8845 69.8279 64.0153C69.9497 64.1462 70.0115 64.3223 70.0017 64.5L68.9525 82.3794C68.933 82.7283 68.6422 82.9998 68.2914 82.9998H68.2881Z" fill="#7D5DF8"/>
<path d="M36.7324 53.8251C36.3669 53.8251 36.0713 53.5326 36.0697 53.1691C36.0616 51.6212 36.0794 50.0572 36.1217 48.4949C35.5386 49.1928 34.8596 49.8117 34.1043 50.3287C33.8039 50.5355 33.3897 50.4596 33.1834 50.1574C32.9755 49.8569 33.0518 49.4465 33.3556 49.2413C34.6127 48.3834 35.6214 47.1991 36.2743 45.8193C36.4091 45.5349 36.7275 45.383 37.0329 45.4606C37.3398 45.5365 37.551 45.816 37.5364 46.1311C37.4308 48.469 37.3837 50.8344 37.3967 53.1642C37.3983 53.5278 37.1043 53.8251 36.7372 53.8267H36.734L36.7324 53.8251Z" fill="#7D5DF8"/>
<path d="M9.5603 70.1887C9.33128 70.1887 9.11526 70.0707 8.99344 69.8704C8.84401 69.6248 8.87162 69.3146 9.05841 69.0981C9.79744 68.2466 10.5625 67.3677 11.178 66.4257C11.3924 66.0993 11.5468 65.8247 11.6052 65.5452C11.6556 65.3093 11.6166 65.0782 11.5078 64.9538C11.3908 64.8213 11.1358 64.7486 10.8613 64.7696C10.7119 64.7809 10.5884 64.8116 10.4975 64.8617C10.2912 64.9748 10.1759 65.2769 10.2555 65.4967C10.3789 65.8392 10.1986 66.2173 9.85429 66.3401C9.50833 66.4629 9.12988 66.2835 9.00644 65.941C8.7092 65.1121 9.0844 64.1314 9.85916 63.7081C10.1174 63.5659 10.4212 63.4819 10.7622 63.4544C11.472 63.4027 12.1087 63.6322 12.5083 64.0878C12.8932 64.5273 13.0394 65.1719 12.9046 65.8166C12.7974 66.3239 12.5457 66.7569 12.2907 67.1463C11.9284 67.6989 11.5289 68.2224 11.1147 68.7265C11.1699 68.7265 11.2268 68.7265 11.282 68.7248L13.1418 68.7038H13.1499C13.5121 68.7038 13.8093 68.9947 13.8126 69.355C13.8174 69.7185 13.5235 70.0174 13.158 70.0223L11.2982 70.0433C10.7379 70.0497 10.2084 70.0562 9.71298 70.1709C9.66263 70.1822 9.61228 70.1887 9.56193 70.1887H9.5603Z" fill="#7D5DF8"/>
<path d="M59.4148 75.419C58.9843 75.419 58.6026 75.3576 58.3574 75.3059C57.2967 75.0797 56.6292 74.5271 56.5236 73.7855C56.4716 73.4252 56.725 73.0907 57.0872 73.0407C57.4478 72.9922 57.7856 73.241 57.836 73.6013C57.8506 73.7031 58.1137 73.905 58.6335 74.0165C59.3189 74.1619 60.1879 74.1571 60.581 73.7047C60.7271 73.5367 60.8116 73.2846 60.8197 72.9954C60.8311 72.5915 60.6849 72.236 60.4283 72.0454C60.2009 71.8774 59.8143 71.8563 59.647 72.0034C59.6405 72.0082 59.634 72.0147 59.6275 72.0211C59.3628 72.2684 58.947 72.2587 58.6952 71.9953C58.4435 71.7336 58.4516 71.3199 58.7131 71.0679C58.7245 71.0566 58.7375 71.0453 58.7488 71.0356C59.1354 70.6753 59.5301 70.302 59.7217 69.8836C59.7997 69.7139 59.7948 69.6235 59.7867 69.6041C59.7526 69.5459 59.4927 69.4651 59.2605 69.5475C58.9389 69.6606 58.6692 69.9466 58.3493 70.3101C58.1072 70.5832 57.6898 70.6106 57.4137 70.3699C57.1392 70.1292 57.1116 69.7123 57.3536 69.4393C57.6882 69.0612 58.1462 68.5426 58.817 68.305C59.5902 68.0304 60.6508 68.2517 61.0081 69.087C61.1771 69.4829 61.1511 69.9482 60.9302 70.4297C60.8815 70.5363 60.8262 70.6381 60.7678 70.7367C60.9302 70.8013 61.0845 70.8853 61.2274 70.992C61.8268 71.4379 62.1711 72.2021 62.1484 73.0326C62.1321 73.6336 61.9388 74.1652 61.5896 74.5691C61 75.2493 60.1408 75.4222 59.4196 75.4222L59.4148 75.419Z" fill="#7D5DF8"/>
</g>
<defs>
<clipPath id="clip0_5067_2626">
<rect width="70" height="83" fill="white"/>
</clipPath>
</defs>
</svg>
