
<svg width="18" height="18" viewBox="0 0 18 18" fill="none" xmlns="http://www.w3.org/2000/svg">
<path d="M9 1.5C4.86 1.5 1.5 4.86 1.5 9C1.5 13.14 4.86 16.5 9 16.5C13.14 16.5 16.5 13.14 16.5 9C16.5 4.86 13.14 1.5 9 1.5ZM9 15C5.6925 15 3 12.3075 3 9C3 5.6925 5.6925 3 9 3C12.3075 3 15 5.6925 15 9C15 12.3075 12.3075 15 9 15Z" fill="#181D27"/>
<path d="M9 14.25C9.6225 14.25 10.125 13.7475 10.125 13.125H7.875C7.875 13.7475 8.3775 14.25 9 14.25Z" fill="#181D27"/>
<path d="M11.25 11.25H6.75V12.375H11.25V11.25Z" fill="#181D27"/>
<path d="M9 3.75C6.93 3.75 5.25 5.43 5.25 7.5C5.25 8.73 5.85 9.8175 6.7725 10.5H11.235C12.15 9.8175 12.75 8.73 12.75 7.5C12.75 5.43 11.07 3.75 9 3.75ZM10.8225 9.375H7.1775C6.6675 8.88 6.375 8.2125 6.375 7.5C6.375 6.0525 7.5525 4.875 9 4.875C10.4475 4.875 11.625 6.0525 11.625 7.5C11.625 8.2125 11.3325 8.88 10.8225 9.375Z" fill="#181D27"/>
</svg>
