
<svg width="24" height="24" viewBox="0 0 24 24" fill="none" xmlns="http://www.w3.org/2000/svg">
<path d="M4.33999 2.935L2.92999 4.345L7.28999 8.705L6.99999 9.005H2.99999V15.005H6.99999L12 20.005V13.415L16.18 17.595C15.53 18.085 14.8 18.475 14 18.705V20.765C15.34 20.465 16.57 19.845 17.61 19.015L19.66 21.065L21.07 19.655L4.33999 2.935ZM9.99999 15.175L7.82999 13.005H4.99999V11.005H7.82999L8.70999 10.125L9.99999 11.415V15.175ZM19 12.005C19 12.825 18.85 13.615 18.59 14.345L20.12 15.875C20.68 14.705 21 13.395 21 12.005C21 7.725 18.01 4.145 14 3.235V5.295C16.89 6.155 19 8.835 19 12.005ZM12 4.005L10.12 5.885L12 7.765V4.005ZM16.5 12.005C16.5 10.235 15.48 8.715 14 7.975V9.765L16.48 12.245C16.49 12.165 16.5 12.085 16.5 12.005Z" fill="#181D27"/>
</svg>
