
<svg width="19" height="18" viewBox="0 0 19 18" fill="none" xmlns="http://www.w3.org/2000/svg">
<path d="M11.75 9C13.4075 9 14.75 7.6575 14.75 6C14.75 4.3425 13.4075 3 11.75 3C10.0925 3 8.75 4.3425 8.75 6C8.75 7.6575 10.0925 9 11.75 9ZM11.75 4.5C12.575 4.5 13.25 5.175 13.25 6C13.25 6.825 12.575 7.5 11.75 7.5C10.925 7.5 10.25 6.825 10.25 6C10.25 5.175 10.925 4.5 11.75 4.5ZM11.75 10.5C9.7475 10.5 5.75 11.505 5.75 13.5V15H17.75V13.5C17.75 11.505 13.7525 10.5 11.75 10.5ZM7.25 13.5C7.415 12.96 9.7325 12 11.75 12C13.775 12 16.1 12.9675 16.25 13.5H7.25ZM5 11.25V9H7.25V7.5H5V5.25H3.5V7.5H1.25V9H3.5V11.25H5Z" fill="#535862"/>
</svg>
