
<svg width="24" height="24" viewBox="0 0 24 24" fill="none" xmlns="http://www.w3.org/2000/svg">
<rect x="7.9668" y="1.9917" width="7.9668" height="1.9917" fill="#181D27"/>
<rect x="10.9543" y="3.9834" width="1.9917" height="15.9336" fill="#181D27"/>
<rect x="7.9668" y="19.917" width="7.9668" height="1.9917" fill="#181D27"/>
<path d="M1.9917 13.9419V9.02878H3.9834V13.9419C3.9834 14.4919 4.42926 14.9378 4.97925 14.9378H9.70954V16.9295H4.97925C3.32927 16.9295 1.9917 15.5919 1.9917 13.9419ZM19.917 13.9419V9.9585C19.917 9.40851 19.4712 8.96265 18.9212 8.96265H14.1909V6.97095H18.9212C20.5711 6.97095 21.9087 8.30852 21.9087 9.9585V13.9419C21.9087 15.5919 20.5711 16.9295 18.9212 16.9295H14.1909V14.9378H18.9212C19.4712 14.9378 19.917 14.4919 19.917 13.9419Z" fill="#181D27"/>
<path d="M5.7231 4.15885C5.80965 3.92491 6.14055 3.92491 6.2271 4.15885L6.61841 5.21636C6.80892 5.7312 7.21484 6.13712 7.72968 6.32764L8.78719 6.71895C9.02114 6.8055 9.02114 7.1364 8.78719 7.22295L7.72968 7.61425C7.21484 7.80477 6.80892 8.21069 6.61841 8.72553L6.2271 9.78304C6.14055 10.017 5.80965 10.017 5.7231 9.78304L5.33179 8.72553C5.14127 8.21069 4.73535 7.80477 4.22051 7.61425L3.163 7.22295C2.92906 7.1364 2.92906 6.8055 3.163 6.71895L4.22051 6.32764C4.73535 6.13712 5.14127 5.7312 5.33179 5.21636L5.7231 4.15885Z" fill="#181D27"/>
</svg>
