<svg width="18" height="18" viewBox="0 0 18 18" fill="none" xmlns="http://www.w3.org/2000/svg">
<mask id="mask0_4360_14967" style="mask-type:alpha" maskUnits="userSpaceOnUse" x="0" y="0" width="18" height="18">
<rect width="18" height="18" fill="#D9D9D9"/>
</mask>
<g mask="url(#mask0_4360_14967)">
<path d="M4.25626 11.5125C4.05626 11.1375 3.89688 10.7406 3.77813 10.3219C3.65938 9.90312 3.60001 9.4625 3.60001 9C3.60001 7.4875 4.13126 6.2 5.19376 5.1375C6.25626 4.075 7.56251 3.5625 9.11251 3.6L8.04376 2.53125L9.00001 1.575L11.7 4.275L9.00001 6.975L8.04376 6.01875L9.11251 4.95C7.93751 4.925 6.95001 5.3125 6.15001 6.1125C5.35001 6.9125 4.95001 7.875 4.95001 9C4.95001 9.275 4.97501 9.5375 5.02501 9.7875C5.07501 10.0375 5.15001 10.2812 5.25001 10.5187L4.25626 11.5125ZM9.00001 16.425L6.30001 13.725L9.00001 11.025L9.95626 11.9812L8.88751 13.05C10.0625 13.075 11.05 12.6875 11.85 11.8875C12.65 11.0875 13.05 10.125 13.05 9C13.05 8.725 13.025 8.4625 12.975 8.2125C12.925 7.9625 12.85 7.71875 12.75 7.48125L13.7438 6.4875C13.9438 6.8625 14.1031 7.25937 14.2219 7.67812C14.3406 8.09687 14.4 8.5375 14.4 9C14.4 10.5 13.8688 11.7844 12.8063 12.8531C11.7438 13.9219 10.4375 14.4375 8.88751 14.4L9.95626 15.4687L9.00001 16.425Z" fill="#525866"/>
</g>
</svg>