
<svg width="20" height="20" viewBox="0 0 20 20" fill="none" xmlns="http://www.w3.org/2000/svg">
<path d="M10.0007 5.41667C13.159 5.41667 15.9756 7.19167 17.3506 10C15.9756 12.8083 13.1673 14.5833 10.0007 14.5833C6.83398 14.5833 4.02565 12.8083 2.65065 10C4.02565 7.19167 6.84232 5.41667 10.0007 5.41667ZM10.0007 3.75C5.83398 3.75 2.27565 6.34167 0.833984 10C2.27565 13.6583 5.83398 16.25 10.0007 16.25C14.1673 16.25 17.7256 13.6583 19.1673 10C17.7256 6.34167 14.1673 3.75 10.0007 3.75ZM10.0007 7.91667C11.1507 7.91667 12.084 8.85 12.084 10C12.084 11.15 11.1507 12.0833 10.0007 12.0833C8.85065 12.0833 7.91732 11.15 7.91732 10C7.91732 8.85 8.85065 7.91667 10.0007 7.91667ZM10.0007 6.25C7.93398 6.25 6.25065 7.93333 6.25065 10C6.25065 12.0667 7.93398 13.75 10.0007 13.75C12.0673 13.75 13.7506 12.0667 13.7506 10C13.7506 7.93333 12.0673 6.25 10.0007 6.25Z" fill="#535862"/>
</svg>
