
<svg width="24" height="24" viewBox="0 0 24 24" fill="none" xmlns="http://www.w3.org/2000/svg">
<path d="M14.2822 14.5256C14.1991 14.4458 14.1159 14.3648 14.0317 14.2828C13.8939 14.5847 13.6915 14.8658 13.4268 15.1042C12.4698 15.9651 10.9898 15.9519 10.0481 15.0747C9.0046 14.1034 8.98272 12.4693 9.98246 11.4695C10.9822 10.4698 12.5463 10.4917 13.5242 11.4695L13.5264 11.4717C13.5811 11.5264 13.6565 11.5516 13.7331 11.5417C13.7933 11.5341 13.8534 11.5297 13.9136 11.5297C14.2877 11.5297 14.6377 11.6807 14.9243 11.965L14.9275 11.9683C15.0107 12.0514 15.1507 11.9607 15.1058 11.8513C14.9078 11.3733 14.6038 10.9281 14.1925 10.5529C12.8395 9.32132 10.5797 9.34757 9.25399 10.6076C7.90096 11.8939 7.76314 13.9579 8.83944 15.4029L8.24441 15.9979L8.03331 15.7868C7.88017 15.6336 7.63188 15.6336 7.47875 15.7868L5.37099 17.8967C4.90285 18.3649 4.86894 19.1272 5.31959 19.6107C5.7932 20.1193 6.58949 20.1292 7.07623 19.6424L9.20586 17.5128C9.35899 17.3597 9.35899 17.1114 9.20586 16.9582L8.99476 16.7471L9.58978 16.1521C11.0106 17.2098 13.0298 17.095 14.3194 15.8043C14.5458 15.5779 14.7361 15.3285 14.8903 15.0638C14.7788 14.9905 14.6683 14.8997 14.5578 14.7914C14.4659 14.7017 14.3741 14.6131 14.2822 14.5234V14.5256Z" fill="black"/>
<path d="M17.9618 11.6555C17.521 11.6468 17.0802 11.6413 16.6405 11.661C16.5399 11.6654 16.3966 11.7605 16.3605 11.8491C16.3255 11.9377 16.3704 12.0963 16.4371 12.1773C16.5399 12.3041 16.6908 12.3916 16.8024 12.4824C16.378 12.909 16.0072 13.2809 15.6211 13.6692C15.2262 13.282 14.8172 12.8839 14.4114 12.4813C14.1784 12.2494 13.9137 12.2024 13.6129 12.3205C13.1786 12.4912 12.7488 12.6717 12.3102 12.8281C12.1319 12.8915 11.9372 12.9265 11.748 12.9331C11.3082 12.9484 10.8663 12.9309 10.4255 12.9407C10.0919 12.9484 9.88412 13.2623 10.0602 13.5193C10.139 13.6342 10.326 13.725 10.4715 13.737C11.5642 13.8278 12.6328 13.737 13.6173 13.1923C13.8054 13.0884 13.9301 13.1398 14.0712 13.2875C14.3939 13.6254 14.7351 13.9448 15.0687 14.2719C15.4942 14.6875 15.818 14.6842 16.2446 14.2588C16.6165 13.8869 16.9873 13.5139 17.3876 13.1135C17.5145 13.2514 17.6064 13.3903 17.7332 13.4767C17.8284 13.5423 17.9848 13.5915 18.0843 13.5587C18.1686 13.5314 18.2594 13.3782 18.2637 13.2765C18.2834 12.8456 18.2747 12.4135 18.2714 11.9815C18.2692 11.7835 18.1598 11.661 17.9629 11.6566L17.9618 11.6555Z" fill="black"/>
<path d="M14.1356 9.07851L14.828 7.81189L16.0946 7.11951L14.828 6.42605L14.1356 5.15942L13.4422 6.42605L12.1755 7.11951L13.4422 7.81189L14.1356 9.07851Z" fill="black"/>
<path d="M10.7645 6.78154L11.2567 5.88243L12.1558 5.39131L11.2567 4.8991L10.7645 4L10.2734 4.8991L9.37427 5.39131L10.2734 5.88243L10.7645 6.78154Z" fill="black"/>
<path d="M17.5056 6.78154L17.9967 5.88243L18.8958 5.39131L17.9967 4.8991L17.5056 4L17.0134 4.8991L16.1143 5.39131L17.0134 5.88243L17.5056 6.78154Z" fill="black"/>
</svg>
