
<svg width="20" height="20" viewBox="0 0 20 20" fill="none" xmlns="http://www.w3.org/2000/svg">
<path d="M12.275 11.0917C12.9333 10.2 13.3333 9.10833 13.3333 7.91667C13.3333 4.925 10.9083 2.5 7.91667 2.5C4.925 2.5 2.5 4.925 2.5 7.91667C2.5 10.9083 4.925 13.3333 7.91667 13.3333C9.10833 13.3333 10.2 12.9333 11.0917 12.275L16.325 17.5L17.5 16.325L12.275 11.0917ZM7.91667 11.6667C5.84167 11.6667 4.16667 9.99167 4.16667 7.91667C4.16667 5.84167 5.84167 4.16667 7.91667 4.16667C9.99167 4.16667 11.6667 5.84167 11.6667 7.91667C11.6667 9.99167 9.99167 11.6667 7.91667 11.6667Z" fill="#dadee6ff"/>
<path d="M8.575 7.03333L7.91667 5L7.25833 7.03333H5.20833L6.88333 8.35833L6.24167 10.4167L7.91667 9.14167L9.59167 10.4167L8.95 8.35833L10.625 7.03333H8.575Z" fill="#ebeef2ff"/>
</svg>
