
<svg width="20" height="20" viewBox="0 0 20 20" fill="none" xmlns="http://www.w3.org/2000/svg">
<path d="M7.49984 10C9.10817 10 10.4165 8.69169 10.4165 7.08335C10.4165 5.47502 9.10817 4.16669 7.49984 4.16669C5.8915 4.16669 4.58317 5.47502 4.58317 7.08335C4.58317 8.69169 5.8915 10 7.49984 10ZM7.49984 5.83335C8.1915 5.83335 8.74984 6.39169 8.74984 7.08335C8.74984 7.77502 8.1915 8.33335 7.49984 8.33335C6.80817 8.33335 6.24984 7.77502 6.24984 7.08335C6.24984 6.39169 6.80817 5.83335 7.49984 5.83335ZM7.5415 14.1667H3.97484C4.79984 13.75 6.22484 13.3334 7.49984 13.3334C7.5915 13.3334 7.6915 13.3417 7.78317 13.3417C8.0665 12.7334 8.55817 12.2334 9.14984 11.8334C8.5415 11.725 7.9665 11.6667 7.49984 11.6667C5.54984 11.6667 1.6665 12.6417 1.6665 14.5834V15.8334H7.49984V14.5834C7.49984 14.4417 7.5165 14.3 7.5415 14.1667ZM13.7498 12.0834C12.2165 12.0834 9.1665 12.925 9.1665 14.5834V15.8334H18.3332V14.5834C18.3332 12.925 15.2832 12.0834 13.7498 12.0834ZM14.7582 10.5667C15.3915 10.2084 15.8332 9.53335 15.8332 8.75002C15.8332 7.60002 14.8998 6.66669 13.7498 6.66669C12.5998 6.66669 11.6665 7.60002 11.6665 8.75002C11.6665 9.53335 12.1082 10.2084 12.7415 10.5667C13.0415 10.7334 13.3832 10.8334 13.7498 10.8334C14.1165 10.8334 14.4582 10.7334 14.7582 10.5667Z" fill="#181D27"/>
</svg>
