
<svg width="32" height="32" viewBox="0 0 32 32" fill="none" xmlns="http://www.w3.org/2000/svg">
<path d="M28.0002 14.7367V19.7894C28.0002 21.8825 26.3886 23.5789 24.4003 23.5789C22.4119 23.5789 20.8003 21.8825 20.8003 19.7894V13.4735H26.8002C27.4632 13.4735 28.0002 14.0388 28.0002 14.7367ZM24.4003 10.9472C25.7257 10.9472 26.8002 9.81604 26.8002 8.42087C26.8002 7.0257 25.7257 5.89453 24.4003 5.89453C23.0749 5.89453 22.0003 7.0257 22.0003 8.42087C22.0003 9.81604 23.0749 10.9472 24.4003 10.9472Z" fill="#5059C9"/>
<path d="M22.5995 14.7369V21.6844C22.5995 25.3115 19.6949 28.225 16.2 27.9863C13.011 27.769 10.5996 24.8315 10.5996 21.4677V13.4738H21.3995C22.0625 13.4738 22.5995 14.039 22.5995 14.7369ZM16.5996 11.579C18.5879 11.579 20.1995 9.88258 20.1995 7.78951C20.1995 5.69644 18.5879 4 16.5996 4C14.6112 4 12.9996 5.69644 12.9996 7.78951C12.9996 9.88258 14.6112 11.579 16.5996 11.579Z" fill="#7B83EB"/>
<path d="M16.6 11.579C18.5882 11.579 20.1999 9.88239 20.1999 7.78951C20.1999 5.69662 18.5882 4 16.6 4C14.6118 4 13 5.69662 13 7.78951C13 9.88239 14.6118 11.579 16.6 11.579Z" fill="#7B83EB"/>
<path opacity="0.05" d="M17.1996 21.8857V13.4736H10.5996V21.4676C10.5996 22.4364 10.8054 23.3674 11.166 24.2106H14.9904C16.2108 24.2106 17.1996 23.1697 17.1996 21.8857Z" fill="black"/>
<path opacity="0.07" d="M10.5996 13.4736V21.4676C10.5996 22.2002 10.7202 22.9101 10.932 23.579H14.9268C15.9612 23.579 16.7994 22.6967 16.7994 21.6078V13.4736H10.5996Z" fill="black"/>
<path opacity="0.09" d="M16.3998 13.4736H10.5996V21.4676C10.5996 21.9741 10.6602 22.468 10.764 22.9474H14.8632C15.7116 22.9474 16.3992 22.2236 16.3992 21.3305L16.3998 13.4736Z" fill="black"/>
<path d="M14.7999 22.3153H5.19999C4.537 22.3153 4 21.75 4 21.0521V10.9468C4 10.2489 4.537 9.68359 5.19999 9.68359H14.7999C15.4629 9.68359 15.9999 10.2489 15.9999 10.9468V21.0521C15.9999 21.75 15.4629 22.3153 14.7999 22.3153Z" fill="url(#paint0_linear_5093_9012)"/>
<path d="M12.4406 12.8428H7.55908V13.9291H9.38727V19.1586H10.6125V13.9291H12.4406V12.8428Z" fill="white"/>
<defs>
<linearGradient id="paint0_linear_5093_9012" x1="4.3888" y1="10.0929" x2="16.2186" y2="21.331" gradientUnits="userSpaceOnUse">
<stop stop-color="#5961C3"/>
<stop offset="1" stop-color="#3A41AC"/>
</linearGradient>
</defs>
</svg>
