
<svg width="237" height="79" viewBox="0 0 237 79" fill="none" xmlns="http://www.w3.org/2000/svg">
<path d="M44.9943 78.257H35.5469V23H44.9943V78.257ZM54.9174 38.0886C57.84 38.0886 60.4227 38.6323 62.5297 39.7198C64.6366 40.8073 66.4038 42.1666 67.7631 43.7978C69.1224 45.429 70.1419 47.2641 70.8216 49.2352C71.5013 51.2062 71.8411 53.0413 71.8411 54.7405V78.257H62.3937V54.9444C62.3937 53.5171 62.1898 52.2937 61.7141 51.3421C61.2383 50.3226 60.6266 49.507 59.811 48.8274C58.9954 48.1477 58.1118 47.6719 57.0244 47.3321C56.0049 46.9923 54.8494 46.8563 53.694 46.8563C52.5386 46.8563 51.4511 46.9923 50.3636 47.3321C49.3441 47.6719 48.3926 48.1477 47.577 48.8274C46.7614 49.507 46.1497 50.3226 45.6739 51.3421C45.1982 52.3616 44.9943 53.585 44.9943 54.9444V78.257H35.5469L38.6733 56.3037C38.9452 54.6045 39.285 52.7015 39.8288 50.5945C40.3045 48.4875 41.1881 46.4485 42.3435 44.6134C43.499 42.7783 45.1302 41.2151 47.1012 39.9237C49.0723 38.6324 51.723 38.0206 54.9174 38.0206V38.0886Z" fill="black"/>
<path d="M94.6775 78.5783C91.4151 78.5783 88.6284 78.0346 86.3176 76.9471C84.0067 75.8596 82.1716 74.5003 80.6763 72.8691C79.1811 71.2379 78.1616 69.4028 77.4819 67.4318C76.8022 65.4607 76.4624 63.6256 76.4624 61.9265V38.41H85.9098V61.7226C85.9098 63.1499 86.1137 64.3733 86.5894 65.3248C87.0652 66.3443 87.6769 67.1599 88.4925 67.8396C89.3081 68.5192 90.1917 68.995 91.2791 69.3348C92.2986 69.6747 93.4541 69.8106 94.6095 69.8106C95.765 69.8106 96.8524 69.6747 97.9399 69.3348C98.9594 68.995 99.9109 68.5192 100.727 67.8396C101.542 67.1599 102.154 66.3443 102.63 65.3248C103.105 64.3053 103.309 63.0819 103.309 61.7226V38.41H112.757V61.9265C112.757 63.6936 112.417 65.5287 111.737 67.4318C111.057 69.4028 110.038 71.1699 108.543 72.8691C107.047 74.5003 105.212 75.9276 102.901 76.9471C100.591 78.0346 97.804 78.5783 94.5415 78.5783H94.6775Z" fill="black"/>
<path d="M136.069 38.0886C139.332 38.0886 142.118 38.6324 144.429 39.7198C146.74 40.8073 148.575 42.1666 150.071 43.7978C151.566 45.429 152.585 47.2641 153.265 49.2352C153.945 51.2062 154.284 53.0413 154.284 54.7405V78.257H144.837V54.9444C144.837 53.5171 144.633 52.2937 144.157 51.3421C143.682 50.3226 143.07 49.507 142.254 48.8274C141.439 48.1477 140.555 47.6719 139.468 47.3321C138.448 46.9923 137.293 46.8563 136.137 46.8563C134.982 46.8563 133.894 46.9923 132.807 47.3321C131.787 47.6719 130.836 48.1477 130.02 48.8274C129.205 49.507 128.593 50.3226 128.117 51.3421C127.642 52.3616 127.438 53.585 127.438 54.9444V78.257H117.99V54.7405C117.99 52.9733 118.33 51.1382 119.01 49.2352C119.689 47.2641 120.709 45.497 122.204 43.7978C123.699 42.1666 125.535 40.7393 127.845 39.7198C130.156 38.6324 132.875 38.0886 136.205 38.0886H136.069Z" fill="black"/>
<path d="M237 69.3784H208.318V78.0781H237V69.3784Z" fill="#0022FC"/>
<path d="M180.316 36.6864C168.693 36.6864 159.314 46.0658 159.314 57.6202C159.314 60.8146 160.062 64.009 161.421 66.8636C162.78 69.5823 164.751 72.301 166.994 74.204C172.771 79.1656 181.811 80.389 187.316 74.34C189.831 71.5533 191.054 67.8831 190.647 64.2809C189.967 57.6201 184.598 52.3867 178.413 52.3867V61.0865C180.52 61.0865 182.423 62.9216 182.627 65.2324C182.762 66.6597 182.015 67.8152 181.539 68.3589C178.956 71.2135 174.674 69.1745 172.228 67.2035C169.509 65.0285 167.606 61.6302 167.47 58.028C167.47 57.892 167.47 57.8241 167.47 57.6881C167.47 50.8914 173.247 45.3861 180.384 45.3861C187.52 45.3861 193.297 50.8914 193.297 57.6881V78.0781H201.385V57.6881C201.385 46.1338 191.938 36.7544 180.384 36.7544L180.316 36.6864Z" fill="#0022FC"/>
<path d="M29.2937 77.8491C22.9728 77.8491 18.2151 76.2859 14.9527 73.2274C11.6903 70.1689 10.0591 65.6151 10.0591 59.702V23.7476H19.2346V59.6341C19.2346 63.1683 19.9822 65.6831 21.5455 67.1784C23.1087 68.6736 25.6235 69.4213 29.2937 69.4213V77.8491ZM28.0023 39.0401V47.468H0V39.0401H28.0023Z" fill="black"/>
<path d="M222.659 64.8926C230.579 64.8926 237 58.4719 237 50.5516C237 42.6313 230.579 36.2106 222.659 36.2106C214.739 36.2106 208.318 42.6313 208.318 50.5516C208.318 58.4719 214.739 64.8926 222.659 64.8926Z" fill="#0022FC"/>
<path d="M213.616 6.14062V4.81818H221.496V6.14062H218.32V15H216.788V6.14062H213.616ZM223.238 4.81818H225.102L228.344 12.733H228.463L231.704 4.81818H233.569V15H232.107V7.6321H232.013L229.01 14.9851H227.797L224.794 7.62713H224.699V15H223.238V4.81818Z" fill="black"/>
</svg>
