
<svg width="20" height="20" viewBox="0 0 20 20" fill="none" xmlns="http://www.w3.org/2000/svg">
<path d="M12.5 1.25H7.5V2.91667H12.5V1.25ZM9.16667 12.0833H10.8333V7.08333H9.16667V12.0833ZM15.8583 6.575L17.0417 5.39167C16.6833 4.96667 16.2917 4.56667 15.8667 4.21667L14.6833 5.4C13.3917 4.36667 11.7667 3.75 10 3.75C5.85833 3.75 2.5 7.10833 2.5 11.25C2.5 15.3917 5.85 18.75 10 18.75C14.15 18.75 17.5 15.3917 17.5 11.25C17.5 9.48333 16.8833 7.85833 15.8583 6.575ZM10 17.0833C6.775 17.0833 4.16667 14.475 4.16667 11.25C4.16667 8.025 6.775 5.41667 10 5.41667C13.225 5.41667 15.8333 8.025 15.8333 11.25C15.8333 14.475 13.225 17.0833 10 17.0833Z" fill="#181D27"/>
</svg>
