
<svg width="18" height="18" viewBox="0 0 18 18" fill="none" xmlns="http://www.w3.org/2000/svg">
<path d="M11.25 3C7.935 3 5.25 5.685 5.25 9C5.25 12.315 7.935 15 11.25 15C14.565 15 17.25 12.315 17.25 9C17.25 5.685 14.565 3 11.25 3ZM11.25 13.5C8.7675 13.5 6.75 11.4825 6.75 9C6.75 6.5175 8.7675 4.5 11.25 4.5C13.7325 4.5 15.75 6.5175 15.75 9C15.75 11.4825 13.7325 13.5 11.25 13.5ZM2.25 9C2.25 7.0425 3.5025 5.3775 5.25 4.7625V3.195C2.6625 3.8625 0.75 6.2025 0.75 9C0.75 11.7975 2.6625 14.1375 5.25 14.805V13.2375C3.5025 12.6225 2.25 10.9575 2.25 9Z" fill="#181D27"/>
</svg>
