<svg width="40" height="40" viewBox="15 12 40 40" fill="none" xmlns="http://www.w3.org/2000/svg">
  <circle cx="35" cy="32" r="20" fill="url(#paint0_linear_4382_16729)"/>
  <path d="M44.2048 20.2055C44.3062 19.9315 44.6938 19.9315 44.7952 20.2055L45.2536 21.4444C45.4768 22.0476 45.9524 22.5231 46.5555 22.7463L47.7944 23.2048C48.0685 23.3062 48.0685 23.6938 47.7944 23.7952L46.5555 24.2536C45.9524 24.4768 45.4768 24.9524 45.2536 25.5555L44.7952 26.7944C44.6938 27.0685 44.3062 27.0685 44.2048 26.7944L43.7463 25.5555C43.5231 24.9524 43.0476 24.4768 42.4444 24.2536L41.2055 23.7952C40.9315 23.6938 40.9315 23.3062 41.2055 23.2048L42.4444 22.7463C43.0476 22.5231 43.5231 22.0476 43.7463 21.4444L44.2048 20.2055Z" fill="white"/>
  <mask id="mask0_4382_16729" style="mask-type:alpha" maskUnits="userSpaceOnUse" x="26" y="25" width="18" height="18">
    <rect x="26" y="25" width="18" height="18" fill="#D9D9D9"/>
  </mask>
  <g mask="url(#mask0_4382_16729)">
    <path d="M35 41.5001L32.9937 38.5001H29C28.5875 38.5001 28.2344 38.3532 27.9406 38.0595C27.6469 37.7657 27.5 37.4126 27.5 37.0001V28.0001C27.5 27.5876 27.6469 27.2345 27.9406 26.9407C28.2344 26.647 28.5875 26.5001 29 26.5001H41C41.4125 26.5001 41.7656 26.647 42.0594 26.9407C42.3531 27.2345 42.5 27.5876 42.5 28.0001V37.0001C42.5 37.4126 42.3531 37.7657 42.0594 38.0595C41.7656 38.3532 41.4125 38.5001 41 38.5001H37.0062L35 41.5001Z" fill="white"/>
  </g>
  <defs>
    <linearGradient id="paint0_linear_4382_16729" x1="35" y1="32" x2="56.2" y2="61.6" gradientUnits="userSpaceOnUse">
      <stop stop-color="#4056F4"/>
      <stop offset="1" stop-color="#DBA6FF"/>
    </linearGradient>
  </defs>
</svg>
