
<svg width="20" height="20" viewBox="0 0 20 20" fill="none" xmlns="http://www.w3.org/2000/svg">
<path d="M10.0002 6.66634C10.9168 6.66634 11.6668 5.91634 11.6668 4.99967C11.6668 4.08301 10.9168 3.33301 10.0002 3.33301C9.0835 3.33301 8.3335 4.08301 8.3335 4.99967C8.3335 5.91634 9.0835 6.66634 10.0002 6.66634ZM10.0002 8.33301C9.0835 8.33301 8.3335 9.08301 8.3335 9.99967C8.3335 10.9163 9.0835 11.6663 10.0002 11.6663C10.9168 11.6663 11.6668 10.9163 11.6668 9.99967C11.6668 9.08301 10.9168 8.33301 10.0002 8.33301ZM10.0002 13.333C9.0835 13.333 8.3335 14.083 8.3335 14.9997C8.3335 15.9163 9.0835 16.6663 10.0002 16.6663C10.9168 16.6663 11.6668 15.9163 11.6668 14.9997C11.6668 14.083 10.9168 13.333 10.0002 13.333Z" fill="#101111ff"/>
</svg>
