
<svg width="14" height="14" viewBox="0 0 14 14" fill="none" xmlns="http://www.w3.org/2000/svg">
<path d="M9.19035 8.31541H8.72951L8.56618 8.15791C9.13785 7.49291 9.48201 6.62958 9.48201 5.69041C9.48201 3.59624 7.78451 1.89874 5.69035 1.89874C3.59618 1.89874 1.89868 3.59624 1.89868 5.69041C1.89868 7.78458 3.59618 9.48208 5.69035 9.48208C6.62951 9.48208 7.49285 9.13791 8.15785 8.56624L8.31535 8.72958V9.19041L11.232 12.1012L12.1012 11.2321L9.19035 8.31541ZM5.69035 8.31541C4.23785 8.31541 3.06535 7.14291 3.06535 5.69041C3.06535 4.23791 4.23785 3.06541 5.69035 3.06541C7.14285 3.06541 8.31535 4.23791 8.31535 5.69041C8.31535 7.14291 7.14285 8.31541 5.69035 8.31541Z" fill="#181D27"/>
</svg>
