
<svg width="24" height="24" viewBox="0 0 24 24" fill="none" xmlns="http://www.w3.org/2000/svg">
<path d="M14.1685 13.73L15.5685 11.31C15.6585 11.16 15.6185 10.97 15.4885 10.86L14.0085 9.70002C14.0385 9.48002 14.0585 9.25002 14.0585 9.02002C14.0585 8.79002 14.0385 8.56002 14.0085 8.33002L15.4885 7.17002C15.6185 7.06002 15.6585 6.87002 15.5685 6.72002L14.1685 4.30002C14.0785 4.15002 13.8985 4.09002 13.7385 4.15002L11.9985 4.85002C11.6385 4.57002 11.2485 4.34002 10.8185 4.16002L10.5585 2.31002C10.5285 2.15002 10.3785 2.02002 10.2085 2.02002H7.40854C7.23854 2.02002 7.08854 2.15002 7.05854 2.32002L6.79854 4.17002C6.37854 4.35002 5.97854 4.58002 5.61854 4.86002L3.87854 4.16002C3.71854 4.10002 3.53854 4.16002 3.44854 4.31002L2.04854 6.73002C1.95854 6.88002 1.99854 7.07002 2.12854 7.18002L3.60854 8.34002C3.57854 8.56002 3.55854 8.79002 3.55854 9.02002C3.55854 9.25002 3.57854 9.48002 3.60854 9.71002L2.12854 10.87C1.99854 10.98 1.95854 11.17 2.04854 11.32L3.44854 13.74C3.53854 13.89 3.71854 13.95 3.87854 13.89L5.61854 13.19C5.97854 13.47 6.36854 13.7 6.79854 13.88L7.05854 15.73C7.08854 15.89 7.23854 16.02 7.40854 16.02H10.2085C10.3785 16.02 10.5285 15.89 10.5585 15.72L10.8185 13.87C11.2385 13.69 11.6385 13.46 11.9985 13.18L13.7385 13.88C13.8985 13.94 14.0785 13.88 14.1685 13.73ZM8.80854 11.02C7.70854 11.02 6.80854 10.12 6.80854 9.02002C6.80854 7.92002 7.70854 7.02002 8.80854 7.02002C9.90854 7.02002 10.8085 7.92002 10.8085 9.02002C10.8085 10.12 9.90854 11.02 8.80854 11.02Z" fill="#181D27"/>
<path d="M21.9185 18.69L20.9585 17.95C20.9785 17.81 20.9985 17.66 20.9985 17.51C20.9985 17.36 20.9885 17.21 20.9585 17.07L21.9085 16.33C21.9885 16.26 22.0185 16.14 21.9585 16.04L21.0585 14.49C21.0085 14.39 20.8885 14.36 20.7785 14.39L19.6685 14.84C19.4385 14.66 19.1885 14.51 18.9085 14.4L18.7385 13.22C18.7285 13.1 18.6285 13.02 18.5285 13.02H16.7385C16.6285 13.02 16.5285 13.1 16.5185 13.21L16.3485 14.39C16.0785 14.51 15.8185 14.65 15.5885 14.83L14.4785 14.38C14.3785 14.34 14.2585 14.38 14.1985 14.48L13.2985 16.03C13.2485 16.13 13.2585 16.25 13.3485 16.32L14.2985 17.06C14.2785 17.2 14.2685 17.35 14.2685 17.5C14.2685 17.65 14.2785 17.8 14.2985 17.94L13.3485 18.68C13.2685 18.75 13.2385 18.87 13.2985 18.97L14.1985 20.52C14.2485 20.62 14.3685 20.65 14.4785 20.62L15.5885 20.17C15.8185 20.35 16.0685 20.5 16.3485 20.61L16.5185 21.79C16.5385 21.9 16.6285 21.98 16.7385 21.98H18.5285C18.6385 21.98 18.7385 21.9 18.7485 21.79L18.9185 20.61C19.1885 20.49 19.4485 20.35 19.6685 20.17L20.7885 20.62C20.8885 20.66 21.0085 20.62 21.0685 20.52L21.9685 18.97C22.0285 18.88 21.9985 18.76 21.9185 18.69ZM17.6285 18.85C16.8885 18.85 16.2785 18.25 16.2785 17.5C16.2785 16.75 16.8785 16.15 17.6285 16.15C18.3785 16.15 18.9785 16.75 18.9785 17.5C18.9785 18.25 18.3685 18.85 17.6285 18.85Z" fill="#181D27"/>
</svg>
