
<svg width="200" height="200" viewBox="0 0 200 200" fill="none" xmlns="http://www.w3.org/2000/svg">
  <rect width="200" height="200" rx="100" fill="#0022FC"/>
  <path d="M156 116.861H114.738V129.377H156V116.861Z" fill="white"/>
  <path d="M74.4541 69.8305C57.7342 69.8305 44.241 83.3237 44.241 99.9458C44.241 104.541 45.3165 109.137 47.2721 113.243C49.2276 117.155 52.0631 121.066 55.2898 123.803C63.6008 130.941 76.6052 132.701 84.5251 123.999C88.1428 119.99 89.9028 114.71 89.3162 109.528C88.3384 99.9458 80.614 92.417 71.7163 92.417V104.932C74.7474 104.932 77.4851 107.572 77.7785 110.897C77.974 112.95 76.8985 114.612 76.2141 115.395C72.4985 119.501 66.3386 116.568 62.8186 113.732C58.9075 110.604 56.1698 105.715 55.9742 100.532C55.9742 100.337 55.9742 100.239 55.9742 100.044C55.9742 90.2659 64.2852 82.3459 74.5518 82.3459C84.8184 82.3459 93.1295 90.2659 93.1295 100.044V129.377H104.765V100.044C104.765 83.4215 91.1739 69.9283 74.5518 69.9283L74.4541 69.8305Z" fill="white"/>
  <path d="M135.369 110.408C146.763 110.408 156 101.171 156 89.777C156 78.3829 146.763 69.1461 135.369 69.1461C123.975 69.1461 114.738 78.3829 114.738 89.777C114.738 101.171 123.975 110.408 135.369 110.408Z" fill="white"/>
</svg>
