<svg width="20" height="20" viewBox="0 0 20 20" fill="none" xmlns="http://www.w3.org/2000/svg">
<mask id="mask0_3437_6356" style="mask-type:alpha" maskUnits="userSpaceOnUse" x="0" y="0" width="20" height="20">
<rect width="20" height="20" fill="#D9D9D9"/>
</mask>
<g mask="url(#mask0_3437_6356)">
<path d="M13.7306 10.4007L9.61514 6.28525L13.7306 2.17004L17.8458 6.28525L13.7306 10.4007ZM3.17285 9.0065V3.17317H9.00618V9.0065H3.17285ZM10.9933 16.8269V10.9936H16.8266V16.8269H10.9933ZM3.17285 16.8269V10.9936H9.00618V16.8269H3.17285ZM4.42285 7.7565H7.75618V4.42317H4.42285V7.7565ZM13.7514 8.66025L16.1056 6.30609L13.7514 3.95192L11.3972 6.30609L13.7514 8.66025ZM12.2433 15.5769H15.5766V12.2436H12.2433V15.5769ZM4.42285 15.5769H7.75618V12.2436H4.42285V15.5769Z" fill="#2F45FF"/>
</g>
</svg>
