<svg width="20" height="20" viewBox="0 0 20 20" fill="none" xmlns="http://www.w3.org/2000/svg">
<mask id="mask0_2438_7194" style="mask-type:alpha" maskUnits="userSpaceOnUse" x="0" y="0" width="20" height="20">
<rect width="20" height="20" fill="#D9D9D9"/>
</mask>
<g mask="url(#mask0_2438_7194)">
<path d="M13.731 10.4007L9.61563 6.28525L13.731 2.17004L17.8463 6.28525L13.731 10.4007ZM3.17334 9.0065V3.17317H9.00667V9.0065H3.17334ZM10.9938 16.8269V10.9936H16.8271V16.8269H10.9938ZM3.17334 16.8269V10.9936H9.00667V16.8269H3.17334ZM4.42334 7.7565H7.75667V4.42317H4.42334V7.7565ZM13.7519 8.66025L16.106 6.30609L13.7519 3.95192L11.3977 6.30609L13.7519 8.66025ZM12.2438 15.5769H15.5771V12.2436H12.2438V15.5769ZM4.42334 15.5769H7.75667V12.2436H4.42334V15.5769Z" fill="#535862"/>
</g>
</svg>
