<svg width="20" height="20" viewBox="0 0 20 20" fill="none" xmlns="http://www.w3.org/2000/svg">
<path d="M10.0231 18.0884C8.11553 18.0884 6.62354 14.5339 6.62354 9.99778C6.62354 5.46169 8.11553 1.90936 10.0231 1.90936C11.9307 1.90936 13.425 5.46394 13.425 10C13.425 14.5361 11.9307 18.0907 10.0231 18.0907V18.0884ZM10.0231 2.35959C8.42665 2.35959 7.07772 5.8579 7.07772 10C7.07772 14.1422 8.42665 17.6405 10.0231 17.6405C11.6196 17.6405 12.9685 14.1422 12.9685 10C12.9685 5.8579 11.6196 2.35959 10.0231 2.35959Z" fill="#2F45FF"/>
<path d="M12.7258 10.0005C12.7258 7.95264 12.3917 6.07243 11.8678 4.71354C11.6056 4.03337 11.3004 3.49544 10.9758 3.13228C10.6504 2.76835 10.3273 2.60236 10.023 2.60236C9.71884 2.60238 9.39567 2.76833 9.07032 3.13228C8.74573 3.49545 8.44052 4.03334 8.17825 4.71354C7.65436 6.07243 7.32032 7.95264 7.32032 10.0005C7.32037 12.0482 7.6544 13.9277 8.17825 15.2865C8.44052 15.9667 8.74573 16.5046 9.07032 16.8678C9.39567 17.2317 9.71883 17.3977 10.023 17.3977C10.3273 17.3977 10.6504 17.2317 10.9758 16.8678C11.3004 16.5046 11.6056 15.9667 11.8678 15.2865C12.3917 13.9277 12.7257 12.0482 12.7258 10.0005ZM13.6681 10.0005C13.668 12.2914 13.2907 14.3475 12.6632 15.8401C12.3496 16.586 11.9685 17.2029 11.5304 17.6366C11.0906 18.0718 10.5812 18.3334 10.023 18.3334H9.78036V18.3125C9.31705 18.2486 8.89154 18.0058 8.51669 17.6347C8.07863 17.2009 7.69718 16.5842 7.38384 15.8382C6.75681 14.3455 6.38086 12.2889 6.38086 9.99765C6.38087 7.70673 6.75693 5.65112 7.38384 4.15896C7.69719 3.41325 8.07861 2.79606 8.51669 2.36251C8.95616 1.92768 9.46503 1.66671 10.023 1.66669C10.5812 1.66669 11.0906 1.92828 11.5304 2.36346C11.9685 2.79719 12.3496 3.41408 12.6632 4.15991C13.2908 5.65267 13.6681 7.70936 13.6681 10.0005Z" fill="#2F45FF"/>
<path d="M14.7718 15.0088C14.4494 15.0088 14.0996 14.9818 13.7272 14.9301C12.1012 14.6982 10.1823 13.9846 8.32241 12.9198C6.46253 11.855 4.87969 10.5651 3.86459 9.2864C2.80407 7.94921 2.48159 6.76735 2.95622 5.95468C3.42857 5.14201 4.62535 4.82685 6.31946 5.06998C7.94544 5.30185 9.86437 6.01546 11.7243 7.08026C13.5841 8.14506 15.167 9.43497 16.1821 10.7136C17.2403 12.0486 17.5651 13.2304 17.0905 14.0431C16.7203 14.6779 15.9141 15.0066 14.7718 15.0066V15.0088ZM5.27937 5.44142C4.31423 5.44142 3.63068 5.69805 3.34909 6.1798C2.9812 6.81237 3.29913 7.8434 4.22112 9.00725C5.20216 10.2431 6.73958 11.4948 8.54951 12.5303C10.3594 13.5659 12.2216 14.2615 13.7908 14.4843C15.2669 14.6959 16.3274 14.4528 16.6953 13.8202C17.0632 13.1877 16.7453 12.1566 15.8233 10.9928C14.8422 9.75689 13.3048 8.5075 11.4949 7.46971C9.68497 6.43418 7.82281 5.73857 6.2536 5.51571C5.90388 5.46618 5.57687 5.44142 5.27937 5.44142Z" fill="#2F45FF"/>
<path d="M4.11824 4.88189C4.72967 4.72105 5.48706 4.70543 6.3536 4.82975L6.66929 4.88C8.26129 5.15937 10.084 5.86148 11.8453 6.86983C13.7238 7.94535 15.3328 9.25425 16.372 10.5632L16.5673 10.8182C17.0022 11.41 17.3002 11.9803 17.4451 12.5104C17.5907 13.043 17.5838 13.5457 17.393 13.9826L17.3001 14.1656C16.8953 14.8596 16.0728 15.1992 15.0145 15.2435V15.252H14.7718C14.4361 15.252 14.0751 15.2235 13.6939 15.1705H13.693C12.029 14.9332 10.0809 14.2059 8.20219 13.1304C6.44077 12.122 4.91556 10.909 3.87555 9.68253L3.67458 9.437C3.13204 8.75291 2.76585 8.09417 2.6005 7.48793C2.43447 6.87907 2.46816 6.30957 2.74649 5.83273L2.8593 5.66209C3.14534 5.28034 3.58095 5.02327 4.11824 4.88189ZM5.27953 5.6839C4.39313 5.6839 3.84297 5.90782 3.60253 6.23563L3.55892 6.30199C3.42155 6.53828 3.39587 6.87728 3.53332 7.32298C3.67033 7.76713 3.96164 8.28939 4.41117 8.85683L4.59697 9.08245C5.55789 10.2149 6.9911 11.359 8.6705 12.3198C10.4617 13.3446 12.2942 14.0269 13.8247 14.2443H13.8257L14.0892 14.2775C14.693 14.3432 15.204 14.3234 15.6041 14.2319C16.0633 14.1269 16.3481 13.9349 16.4858 13.6982C16.6231 13.4619 16.6488 13.1229 16.5114 12.6772C16.3915 12.2886 16.1535 11.84 15.7947 11.3538L15.6335 11.1434C14.7366 10.0135 13.3525 8.86168 11.7069 7.87566L11.3742 7.68037C9.69482 6.71956 7.97913 6.06021 6.51002 5.80239L6.21994 5.75594C5.87966 5.70775 5.56385 5.6839 5.27953 5.6839Z" fill="#2F45FF"/>
<path d="M12.9111 12.8607C14.5057 11.28 14.5057 8.7172 12.9111 7.13652C11.3166 5.55584 8.73128 5.55584 7.13672 7.13652C5.54216 8.7172 5.54216 11.28 7.13672 12.8607C8.73128 14.4414 11.3166 14.4414 12.9111 12.8607Z" fill="#5676FF"/>
<path d="M11.3582 11.3214C12.0952 10.5908 12.0952 9.40636 11.3582 8.6758C10.6212 7.94524 9.42636 7.94524 8.68939 8.6758C7.95242 9.40636 7.95242 10.5908 8.68939 11.3214C9.42636 12.0519 10.6212 12.0519 11.3582 11.3214Z" fill="#2F45FF"/>
<path d="M2.9561 14.0431C2.00231 12.4065 4.35953 9.34717 8.32229 7.078C10.1822 6.0132 12.1011 5.29959 13.7271 5.06772C15.4212 4.82459 16.618 5.13975 17.0903 5.95242L16.6975 6.17754C16.3296 5.54496 15.2691 5.30184 13.793 5.51345C12.2237 5.73856 10.3616 6.43192 8.55166 7.46745C4.9318 9.54077 2.5496 12.447 3.34897 13.818L2.9561 14.0431Z" fill="#2F45FF"/>
<path d="M10.0229 18.0884V17.6382C11.6194 17.6382 12.9683 14.1399 12.9683 9.99778C12.9683 5.85565 11.6194 2.35959 10.0229 2.35959V1.90936C11.9305 1.90936 13.4225 5.46394 13.4225 10C13.4225 14.5361 11.9283 18.0907 10.0229 18.0907V18.0884Z" fill="#2F45FF"/>
<path d="M10.0234 1.66669C10.5816 1.66669 11.0903 1.92827 11.5298 2.36346C11.9679 2.79722 12.3493 3.41393 12.6627 4.15991C13.2896 5.65266 13.6656 7.70941 13.6656 10.0005C13.6656 12.2914 13.2889 14.3475 12.6617 15.8401C12.3482 16.5861 11.9668 17.2028 11.5289 17.6366C11.0895 18.0717 10.5811 18.3334 10.0234 18.3334H9.78076V17.3958H10.0234C10.3277 17.3958 10.6507 17.229 10.9762 16.8649C11.3008 16.5017 11.606 15.9639 11.8682 15.2837C12.3921 13.9248 12.7262 12.0454 12.7262 9.99765C12.7262 7.94985 12.3921 6.07088 11.8682 4.71259C11.606 4.03264 11.3008 3.49526 10.9762 3.13228C10.6508 2.76844 10.3278 2.60236 10.0234 2.60236H9.78076V1.66669H10.0234Z" fill="#2F45FF"/>
<path d="M8.43589 7.27383L8.32234 7.07797C6.67365 8.02121 5.29065 9.11527 4.31189 10.1868C3.82137 10.7226 3.43304 11.2539 3.16507 11.7626C2.89483 12.2737 2.74268 12.7622 2.74268 13.2146C2.74268 13.5118 2.8108 13.7954 2.95614 14.0431C3.15371 14.383 3.47618 14.6284 3.87133 14.7814C4.26874 14.9368 4.74109 15.0066 5.27476 15.0066C6.13544 15.0066 7.15281 14.822 8.25421 14.4685C9.35561 14.1151 10.5388 13.5951 11.7242 12.9175C13.3729 11.9742 14.7559 10.8802 15.7346 9.80863C16.2252 9.27286 16.6135 8.74158 16.8815 8.23282C17.1494 7.72406 17.3016 7.23781 17.3039 6.78307C17.3039 6.48592 17.2357 6.20227 17.0904 5.95465C16.8928 5.61472 16.5703 5.36934 16.1752 5.21627C15.7778 5.06094 15.3054 4.99115 14.7718 4.99115C13.9111 4.99115 12.8937 5.17575 11.7923 5.52918C10.6909 5.88261 9.50776 6.40263 8.32234 7.08023L8.43589 7.27608L8.54943 7.47193C9.7076 6.81009 10.8635 6.30132 11.9331 5.95915C13.0004 5.61697 13.9792 5.44363 14.7718 5.44363C15.2646 5.44363 15.6847 5.51117 16.0072 5.63723C16.3319 5.76555 16.559 5.94564 16.6952 6.18201C16.7974 6.35535 16.8474 6.55571 16.8474 6.78532C16.8474 7.1365 16.7248 7.56197 16.4772 8.02571C16.1093 8.72357 15.4667 9.50698 14.6151 10.2859C13.7635 11.0648 12.703 11.8392 11.4926 12.5303C10.3344 13.1921 9.17848 13.7009 8.10887 14.0431C7.04154 14.3852 6.06277 14.5586 5.27022 14.5586C4.77742 14.5586 4.3573 14.491 4.03483 14.365C3.71009 14.2367 3.483 14.0566 3.34674 13.8202C3.24455 13.6469 3.19459 13.4465 3.19459 13.2169C3.19459 12.8657 3.31722 12.4402 3.56475 11.9765C3.93264 11.2786 4.57531 10.4952 5.42691 9.71633C6.27851 8.93743 7.33903 8.16303 8.54943 7.47193L8.43589 7.27608V7.27383Z" fill="#2F45FF"/>
<path d="M14.7718 4.74847C15.3249 4.74847 15.8298 4.82053 16.2639 4.99021L16.263 4.99116C16.6971 5.15942 17.0681 5.43518 17.2991 5.83203H17.3001C17.47 6.12163 17.5465 6.44874 17.5465 6.78287V6.78476C17.5439 7.29158 17.3749 7.81699 17.0963 8.34611C16.8162 8.87769 16.4147 9.42606 15.9141 9.97286L15.9132 9.97192C15.0394 10.9285 13.8558 11.8977 12.4568 12.7638L11.8444 13.1278C10.6454 13.8131 9.44692 14.3406 8.32826 14.6996C7.21085 15.0581 6.16775 15.2494 5.27478 15.2494C4.72168 15.2494 4.21676 15.1773 3.78263 15.0077V15.0067C3.34852 14.8383 2.9773 14.562 2.74648 14.1649V14.1658C2.57657 13.8763 2.50005 13.5491 2.5 13.215C2.5 12.7725 2.62987 12.3123 2.85076 11.848L2.9503 11.6489C3.23025 11.1175 3.63206 10.5697 4.13244 10.0231L4.52586 9.61263C5.4394 8.70173 6.62261 7.79674 7.99078 6.99237L7.98983 6.99048L8.1453 6.90137C8.16434 6.8904 8.18307 6.87817 8.20218 6.86724L8.41168 6.74779L8.41358 6.75158C9.5419 6.12397 10.6653 5.63622 11.7183 5.29831C12.8357 4.93974 13.8788 4.74848 14.7718 4.74847ZM14.7718 5.68604C14.1066 5.68604 13.294 5.81422 12.397 6.07187L12.0074 6.19037C11.0869 6.48485 10.0985 6.90575 9.09898 7.44457L8.66954 7.68251C7.47344 8.36546 6.42766 9.1294 5.59046 9.89513C4.75134 10.6626 4.13032 11.4249 3.77979 12.0897L3.77884 12.0907C3.54285 12.5328 3.43757 12.9185 3.43757 13.2169C3.43757 13.3619 3.4607 13.4861 3.50487 13.5942L3.55606 13.6966L3.55701 13.6994L3.59872 13.7639C3.70489 13.9127 3.87185 14.0397 4.12391 14.1393H4.12296C4.4088 14.251 4.79695 14.3156 5.27004 14.3156C6.03024 14.3156 6.98333 14.1492 8.03438 13.8122H8.03533L8.43349 13.6776C9.37217 13.3472 10.3707 12.8915 11.3723 12.3191L11.814 12.0594C12.8268 11.4452 13.7189 10.7765 14.4513 10.1065C15.2904 9.33909 15.9125 8.57772 16.263 7.91288V7.91098L16.3454 7.74792C16.5236 7.37415 16.6051 7.04665 16.6052 6.78571C16.6052 6.5925 16.5626 6.43552 16.4857 6.30508L16.4848 6.30318C16.3827 6.12616 16.2058 5.97708 15.9179 5.86331V5.86237C15.6321 5.75087 15.2443 5.68604 14.7718 5.68604Z" fill="#2F45FF"/>
<path d="M16.6975 13.818C16.559 14.0544 16.3342 14.2345 16.0094 14.3628C15.6847 14.4911 15.2646 14.5564 14.774 14.5564C13.9792 14.5564 13.0004 14.3831 11.9354 14.0409C10.868 13.6987 9.70987 13.1899 8.5517 12.5281C6.93935 11.6051 5.59042 10.5358 4.65025 9.50704C4.18017 8.99378 3.81455 8.48952 3.56702 8.02353C3.31949 7.55979 3.19686 7.13432 3.19686 6.78314C3.19686 6.55127 3.24682 6.35317 3.34901 6.17983L2.95614 5.95471C2.8108 6.20234 2.74268 6.48599 2.74268 6.78314C2.74268 7.23787 2.89483 7.72412 3.16507 8.23289C3.56929 8.99603 4.24149 9.8087 5.12033 10.6146C5.99918 11.4183 7.08696 12.2107 8.32234 12.9198C9.50776 13.5974 10.6909 14.1197 11.7923 14.4708C12.8937 14.8243 13.9111 15.0089 14.7718 15.0089C15.3054 15.0089 15.7778 14.9368 16.1752 14.7838C16.5703 14.6307 16.8928 14.3853 17.0904 14.0454L16.6975 13.8203V13.818Z" fill="#2F45FF"/>
<path d="M2.5 6.7832C2.5 6.44887 2.57642 6.12116 2.74648 5.83142L2.86877 5.62476L3.07638 5.7442L3.4698 5.96888L3.6831 6.09117L3.55796 6.30257C3.48096 6.43319 3.43946 6.58798 3.43946 6.7832C3.43949 7.08155 3.54478 7.46735 3.78074 7.90942H3.78169L3.87554 8.07816C4.10717 8.47559 4.42711 8.90372 4.82922 9.34278V9.34373L5.19325 9.72293C6.08582 10.6119 7.27724 11.519 8.67238 12.3176L9.10088 12.5555C10.1008 13.0944 11.0906 13.5152 12.0093 13.8097L12.398 13.9282C13.2934 14.1859 14.1064 14.314 14.7737 14.3141C15.2453 14.3141 15.6327 14.2502 15.9198 14.1368C16.2066 14.0234 16.3836 13.8741 16.4886 13.695L16.9398 12.9243V13.6789L17.211 13.8344L17.4233 13.9557L17.3001 14.1671C17.069 14.5646 16.6976 14.8415 16.263 15.0099H16.262C15.8292 15.1765 15.3257 15.2516 14.7718 15.2516C13.9904 15.2516 13.094 15.1056 12.1335 14.8288L11.7183 14.7018C10.5992 14.3449 9.40077 13.8151 8.20218 13.13H8.20123C7.10837 12.5027 6.12772 11.81 5.30132 11.0994L4.95625 10.7932C4.17655 10.0782 3.54808 9.3507 3.12094 8.64696L2.9503 8.34644C2.66913 7.81701 2.50003 7.29095 2.5 6.7832Z" fill="#2F45FF"/>
</svg>
