<svg width="18" height="18" viewBox="0 0 18 18" fill="none" xmlns="http://www.w3.org/2000/svg">
<path d="M4.00033 11.4997C3.30866 11.4997 2.68366 11.783 2.23366 12.233C1.25033 13.2163 0.666992 17.333 0.666992 17.333C0.666992 17.333 4.78366 16.7497 5.76699 15.7663C6.21699 15.3163 6.50033 14.6913 6.50033 13.9997C6.50033 12.6163 5.38366 11.4997 4.00033 11.4997ZM4.59199 14.5913C4.35866 14.8247 2.78366 15.2247 2.78366 15.2247C2.78366 15.2247 3.17533 13.658 3.41699 13.4163C3.55866 13.258 3.76699 13.1663 4.00033 13.1663C4.45866 13.1663 4.83366 13.5413 4.83366 13.9997C4.83366 14.233 4.74199 14.4413 4.59199 14.5913ZM13.517 10.3747C18.817 5.07466 17.0503 0.949659 17.0503 0.949659C17.0503 0.949659 12.9253 -0.817008 7.62533 4.48299L5.55033 4.06633C5.00866 3.95799 4.44199 4.13299 4.04199 4.52466L0.666992 7.90799L4.83366 9.69133L8.30866 13.1663L10.092 17.333L13.467 13.958C13.8587 13.5663 14.0337 12.9997 13.9253 12.4497L13.517 10.3747ZM5.17533 8.02466L3.58366 7.34133L5.22533 5.69966L6.42533 5.94133C5.95033 6.63299 5.52533 7.35799 5.17533 8.02466ZM10.6587 14.4163L9.97533 12.8247C10.642 12.4747 11.367 12.0497 12.0503 11.5747L12.292 12.7747L10.6587 14.4163ZM12.3337 9.19966C11.2337 10.2997 9.51699 11.1997 8.96699 11.4747L6.52533 9.03299C6.79199 8.49133 7.69199 6.77466 8.80033 5.66633C12.7003 1.76633 15.6587 2.34133 15.6587 2.34133C15.6587 2.34133 16.2337 5.29966 12.3337 9.19966ZM11.5003 8.16633C12.417 8.16633 13.167 7.41633 13.167 6.49966C13.167 5.58299 12.417 4.83299 11.5003 4.83299C10.5837 4.83299 9.83366 5.58299 9.83366 6.49966C9.83366 7.41633 10.5837 8.16633 11.5003 8.16633Z" fill="#2F45FF"/>
</svg>
