<svg width="20" height="20" viewBox="0 0 20 20" fill="none" xmlns="http://www.w3.org/2000/svg">
<path d="M5.00033 12.4997C4.30866 12.4997 3.68366 12.783 3.23366 13.233C2.25033 14.2163 1.66699 18.333 1.66699 18.333C1.66699 18.333 5.78366 17.7497 6.76699 16.7663C7.21699 16.3163 7.50033 15.6913 7.50033 14.9997C7.50033 13.6163 6.38366 12.4997 5.00033 12.4997ZM5.59199 15.5913C5.35866 15.8247 3.78366 16.2247 3.78366 16.2247C3.78366 16.2247 4.17533 14.658 4.41699 14.4163C4.55866 14.258 4.76699 14.1663 5.00033 14.1663C5.45866 14.1663 5.83366 14.5413 5.83366 14.9997C5.83366 15.233 5.74199 15.4413 5.59199 15.5913ZM14.517 11.3747C19.817 6.07466 18.0503 1.94966 18.0503 1.94966C18.0503 1.94966 13.9253 0.182992 8.62533 5.48299L6.55033 5.06633C6.00866 4.95799 5.44199 5.13299 5.04199 5.52466L1.66699 8.90799L5.83366 10.6913L9.30866 14.1663L11.092 18.333L14.467 14.958C14.8587 14.5663 15.0337 13.9997 14.9253 13.4497L14.517 11.3747ZM6.17533 9.02466L4.58366 8.34133L6.22533 6.69966L7.42533 6.94133C6.95033 7.63299 6.52533 8.35799 6.17533 9.02466ZM11.6587 15.4163L10.9753 13.8247C11.642 13.4747 12.367 13.0497 13.0503 12.5747L13.292 13.7747L11.6587 15.4163ZM13.3337 10.1997C12.2337 11.2997 10.517 12.1997 9.96699 12.4747L7.52533 10.033C7.79199 9.49133 8.69199 7.77466 9.80033 6.66633C13.7003 2.76633 16.6587 3.34133 16.6587 3.34133C16.6587 3.34133 17.2337 6.29966 13.3337 10.1997ZM12.5003 9.16633C13.417 9.16633 14.167 8.41633 14.167 7.49966C14.167 6.58299 13.417 5.83299 12.5003 5.83299C11.5837 5.83299 10.8337 6.58299 10.8337 7.49966C10.8337 8.41633 11.5837 9.16633 12.5003 9.16633Z" fill="#535862"/>
</svg>
