<svg width="20" height="20" viewBox="0 0 20 20" fill="none" xmlns="http://www.w3.org/2000/svg">
<path d="M15.0003 8.73331V4.99998C15.0003 4.08331 14.2503 3.33331 13.3337 3.33331H3.33366C2.41699 3.33331 1.66699 4.08331 1.66699 4.99998V15C1.66699 15.9166 2.41699 16.6666 3.33366 16.6666H13.3337C14.2503 16.6666 15.0003 15.9166 15.0003 15V11.2666L18.3337 14.5833V5.41665L15.0003 8.73331ZM13.3337 15H3.33366V4.99998H13.3337V15Z" fill="#2F45FF"/>
<path d="M8.33366 9.99998C9.25413 9.99998 10.0003 9.25379 10.0003 8.33331C10.0003 7.41284 9.25413 6.66665 8.33366 6.66665C7.41318 6.66665 6.66699 7.41284 6.66699 8.33331C6.66699 9.25379 7.41318 9.99998 8.33366 9.99998Z" fill="#2F45FF"/>
<path d="M11.667 12.8583C11.667 12.1833 11.267 11.5833 10.6503 11.3166C9.94199 11.0083 9.15866 10.8333 8.33366 10.8333C7.50866 10.8333 6.72533 11.0083 6.01699 11.3166C5.40033 11.5833 5.00033 12.1833 5.00033 12.8583V13.3333H11.667V12.8583Z" fill="#2F45FF"/>
</svg>
