<svg width="20" height="20" viewBox="0 0 20 20" fill="none" xmlns="http://www.w3.org/2000/svg">
<path d="M14.9998 8.73334V5.00001C14.9998 4.08334 14.2498 3.33334 13.3332 3.33334H3.33317C2.4165 3.33334 1.6665 4.08334 1.6665 5.00001V15C1.6665 15.9167 2.4165 16.6667 3.33317 16.6667H13.3332C14.2498 16.6667 14.9998 15.9167 14.9998 15V11.2667L18.3332 14.5833V5.41668L14.9998 8.73334ZM13.3332 15H3.33317V5.00001H13.3332V15Z" fill="#535862"/>
<path d="M8.33317 10C9.25365 10 9.99984 9.25382 9.99984 8.33334C9.99984 7.41287 9.25365 6.66668 8.33317 6.66668C7.4127 6.66668 6.6665 7.41287 6.6665 8.33334C6.6665 9.25382 7.4127 10 8.33317 10Z" fill="#535862"/>
<path d="M11.6665 12.8583C11.6665 12.1833 11.2665 11.5833 10.6498 11.3167C9.9415 11.0083 9.15817 10.8333 8.33317 10.8333C7.50817 10.8333 6.72484 11.0083 6.0165 11.3167C5.39984 11.5833 4.99984 12.1833 4.99984 12.8583V13.3333H11.6665V12.8583Z" fill="#535862"/>
</svg>
