<svg width="20" height="20" viewBox="0 0 20 20" fill="none" xmlns="http://www.w3.org/2000/svg">
<mask id="mask0_3193_42764" style="mask-type:alpha" maskUnits="userSpaceOnUse" x="0" y="0" width="20" height="20">
<rect width="20" height="20" fill="#D9D9D9"/>
</mask>
<g mask="url(#mask0_3193_42764)">
<path d="M6.6665 11.6667H13.3332V11.2084C13.3332 10.5972 13.0276 10.1042 12.4165 9.72919C11.8054 9.35419 10.9998 9.16669 9.99984 9.16669C8.99984 9.16669 8.19428 9.35419 7.58317 9.72919C6.97206 10.1042 6.6665 10.5972 6.6665 11.2084V11.6667ZM9.99984 8.33335C10.4582 8.33335 10.8505 8.17016 11.1769 7.84377C11.5033 7.51738 11.6665 7.12502 11.6665 6.66669C11.6665 6.20835 11.5033 5.81599 11.1769 5.4896C10.8505 5.16321 10.4582 5.00002 9.99984 5.00002C9.5415 5.00002 9.14914 5.16321 8.82275 5.4896C8.49637 5.81599 8.33317 6.20835 8.33317 6.66669C8.33317 7.12502 8.49637 7.51738 8.82275 7.84377C9.14914 8.17016 9.5415 8.33335 9.99984 8.33335ZM1.6665 18.3334V3.33335C1.6665 2.87502 1.8297 2.48266 2.15609 2.15627C2.48248 1.82988 2.87484 1.66669 3.33317 1.66669H16.6665C17.1248 1.66669 17.5172 1.82988 17.8436 2.15627C18.17 2.48266 18.3332 2.87502 18.3332 3.33335V13.3334C18.3332 13.7917 18.17 14.184 17.8436 14.5104C17.5172 14.8368 17.1248 15 16.6665 15H4.99984L1.6665 18.3334ZM4.2915 13.3334H16.6665V3.33335H3.33317V14.2709L4.2915 13.3334Z" fill="#535862"/>
</g>
</svg>
