<svg width="20" height="20" viewBox="0 0 20 20" fill="none" xmlns="http://www.w3.org/2000/svg">
<path d="M13.3332 13.0167C13.8486 13.0167 14.2665 12.5988 14.2665 12.0834C14.2665 11.5679 13.8486 11.15 13.3332 11.15C12.8177 11.15 12.3998 11.5679 12.3998 12.0834C12.3998 12.5988 12.8177 13.0167 13.3332 13.0167Z" fill="#181D27"/>
<path fill-rule="evenodd" clip-rule="evenodd" d="M13.3332 13.75C12.7248 13.75 11.5082 14.05 11.4665 14.65C11.8832 15.2417 12.5665 15.625 13.3332 15.625C14.0998 15.625 14.7832 15.2417 15.1998 14.65C15.1582 14.05 13.9415 13.75 13.3332 13.75Z" fill="#181D27"/>
<path fill-rule="evenodd" clip-rule="evenodd" d="M14.1665 8.40835V4.39169L7.9165 1.66669L1.6665 4.39169V8.48335C1.6665 12.2667 4.33317 15.8084 7.9165 16.6667C8.37484 16.5584 8.8165 16.4 9.24984 16.2084C10.1498 17.4917 11.6415 18.3334 13.3332 18.3334C16.0915 18.3334 18.3332 16.0917 18.3332 13.3334C18.3332 10.8584 16.5332 8.80835 14.1665 8.40835ZM8.33317 13.3334C8.33317 13.8 8.39984 14.2584 8.52484 14.6834C8.32484 14.775 8.12484 14.8667 7.9165 14.9334C5.27484 14.1 3.33317 11.4 3.33317 8.48335V5.48335L7.9165 3.48335L12.4998 5.48335V8.40835C10.1332 8.80835 8.33317 10.8584 8.33317 13.3334ZM13.3332 16.6667C11.4915 16.6667 9.99984 15.175 9.99984 13.3334C9.99984 11.4917 11.4915 10 13.3332 10C15.1748 10 16.6665 11.4917 16.6665 13.3334C16.6665 15.175 15.1748 16.6667 13.3332 16.6667Z" fill="#181D27"/>
</svg>
