<svg width="20" height="20" viewBox="0 0 20 20" fill="none" xmlns="http://www.w3.org/2000/svg">
<mask id="mask0_3437_6334" style="mask-type:alpha" maskUnits="userSpaceOnUse" x="0" y="0" width="20" height="20">
<rect width="20" height="20" fill="#D9D9D9"/>
</mask>
<g mask="url(#mask0_3437_6334)">
<path d="M9.16634 9.16669L2.49967 5.00002V13.3334H10.833V15H2.49967C2.04134 15 1.64898 14.8368 1.32259 14.5104C0.996202 14.184 0.833008 13.7917 0.833008 13.3334V3.33335C0.833008 2.87502 0.996202 2.48266 1.32259 2.15627C1.64898 1.82988 2.04134 1.66669 2.49967 1.66669H15.833C16.2913 1.66669 16.6837 1.82988 17.0101 2.15627C17.3365 2.48266 17.4997 2.87502 17.4997 3.33335V7.50002H15.833V5.00002L9.16634 9.16669ZM9.16634 7.50002L15.833 3.33335H2.49967L9.16634 7.50002ZM15.833 18.3334C14.9163 18.3334 14.1316 18.007 13.4788 17.3542C12.8261 16.7014 12.4997 15.9167 12.4997 15V11.25C12.4997 10.6667 12.7011 10.1736 13.1038 9.77085C13.5066 9.36808 13.9997 9.16669 14.583 9.16669C15.1663 9.16669 15.6594 9.36808 16.0622 9.77085C16.465 10.1736 16.6663 10.6667 16.6663 11.25V15H14.9997V11.25C14.9997 11.1389 14.958 11.0417 14.8747 10.9584C14.7913 10.875 14.6941 10.8334 14.583 10.8334C14.4719 10.8334 14.3747 10.875 14.2913 10.9584C14.208 11.0417 14.1663 11.1389 14.1663 11.25V15C14.1663 15.4584 14.3295 15.8507 14.6559 16.1771C14.9823 16.5035 15.3747 16.6667 15.833 16.6667C16.2913 16.6667 16.6837 16.5035 17.0101 16.1771C17.3365 15.8507 17.4997 15.4584 17.4997 15V11.6667H19.1663V15C19.1663 15.9167 18.84 16.7014 18.1872 17.3542C17.5344 18.007 16.7497 18.3334 15.833 18.3334ZM2.49967 5.00002V3.33335V13.3334V5.00002Z" fill="#2F45FF"/>
</g>
</svg>
