<svg width="20" height="20" viewBox="0 0 20 20" fill="none" xmlns="http://www.w3.org/2000/svg">
<mask id="mask0_3177_25048" style="mask-type:alpha" maskUnits="userSpaceOnUse" x="0" y="0" width="20" height="20">
<rect width="20" height="20" fill="#D9D9D9"/>
</mask>
<g mask="url(#mask0_3177_25048)">
<path d="M9.16683 9.16669L2.50016 5.00002V13.3334H10.8335V15H2.50016C2.04183 15 1.64947 14.8368 1.32308 14.5104C0.996691 14.184 0.833496 13.7917 0.833496 13.3334V3.33335C0.833496 2.87502 0.996691 2.48266 1.32308 2.15627C1.64947 1.82988 2.04183 1.66669 2.50016 1.66669H15.8335C16.2918 1.66669 16.6842 1.82988 17.0106 2.15627C17.337 2.48266 17.5002 2.87502 17.5002 3.33335V7.50002H15.8335V5.00002L9.16683 9.16669ZM9.16683 7.50002L15.8335 3.33335H2.50016L9.16683 7.50002ZM15.8335 18.3334C14.9168 18.3334 14.1321 18.007 13.4793 17.3542C12.8266 16.7014 12.5002 15.9167 12.5002 15V11.25C12.5002 10.6667 12.7016 10.1736 13.1043 9.77085C13.5071 9.36808 14.0002 9.16669 14.5835 9.16669C15.1668 9.16669 15.6599 9.36808 16.0627 9.77085C16.4654 10.1736 16.6668 10.6667 16.6668 11.25V15H15.0002V11.25C15.0002 11.1389 14.9585 11.0417 14.8752 10.9584C14.7918 10.875 14.6946 10.8334 14.5835 10.8334C14.4724 10.8334 14.3752 10.875 14.2918 10.9584C14.2085 11.0417 14.1668 11.1389 14.1668 11.25V15C14.1668 15.4584 14.33 15.8507 14.6564 16.1771C14.9828 16.5035 15.3752 16.6667 15.8335 16.6667C16.2918 16.6667 16.6842 16.5035 17.0106 16.1771C17.337 15.8507 17.5002 15.4584 17.5002 15V11.6667H19.1668V15C19.1668 15.9167 18.8404 16.7014 18.1877 17.3542C17.5349 18.007 16.7502 18.3334 15.8335 18.3334ZM2.50016 5.00002V3.33335V13.3334V5.00002Z" fill="#535862"/>
</g>
</svg>
