<svg width="20" height="20" viewBox="0 0 20 20" fill="none" xmlns="http://www.w3.org/2000/svg">
<path d="M9.99935 1.66675C5.39935 1.66675 1.66602 5.40008 1.66602 10.0001C1.66602 14.6001 5.39935 18.3334 9.99935 18.3334C14.5993 18.3334 18.3327 14.6001 18.3327 10.0001C18.3327 5.40008 14.5993 1.66675 9.99935 1.66675ZM9.99935 16.6667C6.32435 16.6667 3.33268 13.6751 3.33268 10.0001C3.33268 6.32508 6.32435 3.33341 9.99935 3.33341C13.6743 3.33341 16.666 6.32508 16.666 10.0001C16.666 13.6751 13.6743 16.6667 9.99935 16.6667ZM13.8243 6.31675L8.33268 11.8084L6.17435 9.65842L4.99935 10.8334L8.33268 14.1667L14.9993 7.50008L13.8243 6.31675Z" fill="white"/>
</svg>
