<svg width="20" height="20" viewBox="0 0 20 20" fill="none" xmlns="http://www.w3.org/2000/svg">
<mask id="mask0_1596_1232" style="mask-type:alpha" maskUnits="userSpaceOnUse" x="0" y="0" width="20" height="20">
<rect width="20" height="20" fill="#D9D9D9"/>
</mask>
<g mask="url(#mask0_1596_1232)">
<path d="M8.62565 14.1667L13.334 9.45837L12.1257 8.25004L8.60482 11.7709L6.85482 10.0209L5.66732 11.2084L8.62565 14.1667ZM5.41732 16.6667C4.15343 16.6667 3.07357 16.2292 2.17773 15.3542C1.2819 14.4792 0.833984 13.4098 0.833984 12.1459C0.833984 11.0625 1.16037 10.0973 1.81315 9.25004C2.46593 8.40282 3.3201 7.86115 4.37565 7.62504C4.72287 6.34726 5.41732 5.31254 6.45898 4.52087C7.50065 3.72921 8.68121 3.33337 10.0007 3.33337C11.6257 3.33337 13.0041 3.89935 14.1361 5.03129C15.268 6.16324 15.834 7.54171 15.834 9.16671C16.7923 9.27782 17.5875 9.69101 18.2194 10.4063C18.8513 11.1216 19.1673 11.9584 19.1673 12.9167C19.1673 13.9584 18.8027 14.8438 18.0736 15.573C17.3444 16.3021 16.459 16.6667 15.4173 16.6667H5.41732Z" fill="#7A5AF8"/>
</g>
</svg>
