<svg width="20" height="20" viewBox="0 0 20 20" fill="none" xmlns="http://www.w3.org/2000/svg">
<path fill-rule="evenodd" clip-rule="evenodd" d="M10.0003 1.66669C5.40033 1.66669 1.66699 5.40002 1.66699 10C1.66699 14.6 5.40033 18.3334 10.0003 18.3334C14.6003 18.3334 18.3337 14.6 18.3337 10C18.3337 5.40002 14.6003 1.66669 10.0003 1.66669ZM10.0003 16.6667C6.32533 16.6667 3.33366 13.675 3.33366 10C3.33366 6.32502 6.32533 3.33335 10.0003 3.33335C13.6753 3.33335 16.667 6.32502 16.667 10C16.667 13.675 13.6753 16.6667 10.0003 16.6667Z" fill="#2F45FF"/>
<path fill-rule="evenodd" clip-rule="evenodd" d="M11.242 9.48335C11.6003 8.46669 11.3837 7.28335 10.567 6.46669C9.64199 5.54169 8.24199 5.38335 7.15033 5.97502L9.10866 7.93335L7.93366 9.10835L5.97533 7.15002C5.38366 8.25002 5.54199 9.64169 6.46699 10.5667C7.28366 11.3834 8.46699 11.6 9.48366 11.2417L12.3253 14.0834C12.492 14.25 12.7503 14.25 12.917 14.0834L14.0837 12.9167C14.2503 12.75 14.2503 12.4917 14.0837 12.325L11.242 9.48335Z" fill="#2F45FF"/>
</svg>
