<svg width="20" height="20" viewBox="0 0 20 20" fill="none" xmlns="http://www.w3.org/2000/svg">
<g id="content_copy">
<mask id="mask0_586_1456" style="mask-type:alpha" maskUnits="userSpaceOnUse" x="0" y="0" width="20" height="20">
<rect id="Bounding box" width="20" height="20" fill="#D9D9D9"/>
</mask>
<g mask="url(#mask0_586_1456)">
<path id="content_copy_2" d="M7.54804 14.5833C7.1271 14.5833 6.7708 14.4375 6.47915 14.1458C6.18748 13.8542 6.04165 13.4978 6.04165 13.0769V3.58978C6.04165 3.16883 6.18748 2.81253 6.47915 2.52086C6.7708 2.22919 7.1271 2.08336 7.54804 2.08336H14.5352C14.9561 2.08336 15.3124 2.22919 15.6041 2.52086C15.8957 2.81253 16.0416 3.16883 16.0416 3.58978V13.0769C16.0416 13.4978 15.8957 13.8542 15.6041 14.1458C15.3124 14.4375 14.9561 14.5833 14.5352 14.5833H7.54804ZM7.54804 13.3333H14.5352C14.5993 13.3333 14.658 13.3066 14.7115 13.2532C14.7649 13.1998 14.7916 13.141 14.7916 13.0769V3.58978C14.7916 3.52567 14.7649 3.46689 14.7115 3.41346C14.658 3.36005 14.5993 3.33334 14.5352 3.33334H7.54804C7.48393 3.33334 7.42517 3.36005 7.37175 3.41346C7.31832 3.46689 7.2916 3.52567 7.2916 3.58978V13.0769C7.2916 13.141 7.31832 13.1998 7.37175 13.2532C7.42517 13.3066 7.48393 13.3333 7.54804 13.3333ZM4.6314 17.4999C4.21047 17.4999 3.85417 17.3541 3.5625 17.0624C3.27083 16.7708 3.125 16.4145 3.125 15.9935V5.25644H4.37498V15.9935C4.37498 16.0577 4.40169 16.1164 4.4551 16.1698C4.50853 16.2233 4.5673 16.25 4.6314 16.25H12.8685V17.4999H4.6314Z" fill="#344054"/>
</g>
</g>
</svg>
