<svg width="20" height="20" viewBox="0 0 20 20" fill="none" xmlns="http://www.w3.org/2000/svg">
<path d="M7.99172 10.8333C8.45005 10.8333 8.82505 11.2083 8.82505 11.6666C8.82505 12.125 8.45005 12.5 7.99172 12.5C7.53338 12.5 7.15838 12.125 7.15838 11.6666C7.15838 11.2083 7.53338 10.8333 7.99172 10.8333ZM7.99172 9.16663C6.60838 9.16663 5.49172 10.2833 5.49172 11.6666C5.49172 13.05 6.60838 14.1666 7.99172 14.1666C9.37505 14.1666 10.4917 13.05 10.4917 11.6666C10.4917 10.2833 9.37505 9.16663 7.99172 9.16663ZM15.075 7.49996L15.9834 5.49163L17.9917 4.58329L15.9834 3.67496L15.075 1.66663L14.1667 3.67496L12.1584 4.58329L14.1667 5.49163L15.075 7.49996ZM17.3917 10.6L16.7417 9.16663L16.0917 10.6L14.6584 11.25L16.0917 11.9L16.7417 13.3333L17.3917 11.9L18.8251 11.25L17.3917 10.6ZM13.2 11.6666C13.2 11.5666 13.2 11.4583 13.1917 11.3583L14.8084 10.1333L12.725 6.52496L10.8584 7.30829C10.6917 7.19996 10.5084 7.09163 10.325 6.99996L10.075 4.99996H5.90838L5.65838 7.00829C5.47505 7.09996 5.30005 7.20829 5.12505 7.31663L3.25838 6.52496L1.17505 10.1333L2.79172 11.3583C2.78338 11.4583 2.78338 11.5666 2.78338 11.6666C2.78338 11.7666 2.78338 11.875 2.79172 11.975L1.17505 13.2L3.25838 16.8083L5.12505 16.025C5.29172 16.1333 5.47505 16.2416 5.65838 16.3333L5.90838 18.3333H10.075L10.325 16.325C10.5084 16.2333 10.6834 16.1333 10.8584 16.0166L12.725 16.8L14.8084 13.1916L13.1917 11.9666C13.2 11.875 13.2 11.7666 13.2 11.6666ZM12.0167 14.7L10.575 14.0916C10.1084 14.5916 9.49172 14.9583 8.80005 15.1166L8.60005 16.6666H7.38338L7.19172 15.1166C6.50005 14.9583 5.88338 14.5916 5.41672 14.0916L3.97505 14.7L3.36672 13.6416L4.60838 12.7C4.50838 12.375 4.45838 12.0333 4.45838 11.675C4.45838 11.3166 4.50838 10.975 4.60838 10.65L3.36672 9.70829L3.97505 8.64996L5.41672 9.25829C5.88338 8.75829 6.50005 8.39163 7.19172 8.23329L7.38338 6.66663H8.60838L8.80005 8.21663C9.49172 8.37496 10.1084 8.74163 10.575 9.24163L12.0167 8.63329L12.625 9.69163L11.3834 10.6333C11.4834 10.9583 11.5334 11.3 11.5334 11.6583C11.5334 12.0166 11.4834 12.3583 11.3834 12.6833L12.625 13.625L12.0167 14.7Z" fill="#535862"/>
</svg>
