<svg width="50" height="50" viewBox="0 0 50 50" fill="none" xmlns="http://www.w3.org/2000/svg">
<path d="M0 25C0 11.1929 11.1929 0 25 0C38.8071 0 50 11.1929 50 25C50 38.8071 38.8071 50 25 50C11.1929 50 0 38.8071 0 25Z" fill="#F5F5F5"/>
<path d="M22.9951 14.0625C23.7342 14.0625 24.4286 14.4212 24.8525 15.0234L26.6396 17.5635C26.8188 17.818 27.114 17.9716 27.4297 17.9717H36.1709C37.4178 17.9717 38.4363 18.9764 38.4365 20.2188V33.3086C38.4362 34.5396 37.4266 35.535 36.1914 35.5352H34.6377C34.28 35.5351 33.9863 35.2469 33.9863 34.8867C33.9866 34.5264 34.2811 34.2393 34.6377 34.2393H36.1914C36.7132 34.2393 37.1344 33.8185 37.1348 33.3086V20.2188C37.1346 19.6975 36.7051 19.2686 36.1719 19.2686H27.4307C26.6914 19.2685 25.9962 18.9099 25.5723 18.3076L23.7861 15.7676C23.607 15.513 23.3117 15.3595 22.9961 15.3594H14.4531C13.92 15.3594 13.4903 15.789 13.4902 16.3105V33.3086C13.4906 33.8186 13.9112 34.2391 14.4326 34.2393H16.0137C16.371 34.2396 16.6638 34.527 16.6641 34.8867C16.6641 35.2471 16.3702 35.5348 16.0137 35.5352H14.4326C13.1973 35.535 12.1878 34.5395 12.1875 33.3086V16.3096C12.1877 15.0672 13.2069 14.0625 14.4531 14.0625H22.9951ZM34.127 14.5361C34.796 14.5362 35.4279 14.7951 35.9023 15.2656L37.3408 16.6904C37.5962 16.9437 37.5963 17.3562 37.3408 17.6094C37.213 17.7359 37.0458 17.7976 36.8818 17.7979H36.8809L36.7578 17.7852C36.6356 17.7616 36.5179 17.7036 36.4229 17.6104L36.4219 17.6094L34.9834 16.1846C34.7546 15.9579 34.4517 15.8331 34.127 15.833H26.3262C25.9685 15.8329 25.6749 15.5447 25.6748 15.1846C25.6748 14.8241 25.9694 14.5362 26.3262 14.5361H34.127Z" fill="black"/>
<path d="M25.3098 22.5215C26.1095 22.5215 26.8304 22.9332 27.2316 23.6211L32.8469 33.2568C33.2239 33.9028 33.248 34.67 32.9182 35.3311L32.8469 35.4619C32.4459 36.1497 31.7263 36.5618 30.927 36.5625H19.6965C18.8962 36.5625 18.1749 36.1505 17.7736 35.4619C17.3724 34.773 17.3723 33.9467 17.7736 33.2578L23.3889 23.6211C23.7901 22.9326 24.5104 22.5223 25.3098 22.5215ZM25.301 23.8184C24.9709 23.8217 24.6809 23.9892 24.5168 24.2705L18.9016 33.9082C18.7363 34.1926 18.7363 34.5272 18.9016 34.8115L18.969 34.9121C19.1413 35.1356 19.4039 35.2656 19.6965 35.2656H30.927C31.2613 35.2656 31.5566 35.0964 31.7229 34.8115C31.8881 34.5278 31.8881 34.1919 31.7229 33.9082L26.1066 24.2725C25.9404 23.988 25.646 23.8185 25.3117 23.8184H25.301ZM25.3108 31.8018C25.83 31.8018 26.2569 32.2197 26.257 32.7412C26.2568 33.2626 25.83 33.6807 25.3108 33.6807C24.7917 33.6804 24.3657 33.2625 24.3654 32.7412C24.3656 32.2199 24.7917 31.802 25.3108 31.8018ZM25.3117 26.2598C25.6638 26.2598 25.9337 26.4867 26.0949 26.7529C26.2583 27.0227 26.3395 27.3731 26.3137 27.7354L26.092 30.8691C26.0756 31.0973 26.0022 31.3143 25.8772 31.4814C25.7526 31.648 25.5576 31.7861 25.3117 31.7861C25.0659 31.7861 24.8709 31.648 24.7463 31.4814C24.637 31.3353 24.567 31.1514 24.5402 30.9551L24.5315 30.8691L24.3098 27.7354C24.284 27.3733 24.3644 27.0227 24.5275 26.7529C24.6888 26.4867 24.9596 26.2598 25.3117 26.2598Z" fill="#D92D20"/>
</svg>
