<svg width="80" height="80" viewBox="0 0 80 80" fill="none" xmlns="http://www.w3.org/2000/svg">
<path d="M0 40C0 17.9086 17.9086 0 40 0C62.0914 0 80 17.9086 80 40C80 62.0914 62.0914 80 40 80C17.9086 80 0 62.0914 0 40Z" fill="#FEF3F2"/>
<path d="M55.5955 53.8643V51.448C60.4171 50.3039 63.9997 45.996 63.9997 40.8535C63.9997 35.7111 60.1279 31.07 55.0202 30.1403C54.4047 25.545 50.4454 22 45.6532 22C43.5331 22 41.5769 22.6925 40.0002 23.8635C38.4231 22.6925 36.4669 22 34.3468 22C29.5546 22 25.5953 25.545 24.9798 30.1403C19.8718 31.07 16 35.5108 16 40.8535C16 46.1963 19.5816 50.3022 24.3998 51.4487V53.8643C24.3998 54.1627 24.4957 54.3787 24.662 54.5355C24.6663 54.5397 24.6705 54.5463 24.6768 54.5525C24.6768 54.5525 23.7606 54.7453 22.9891 54.9125C22.2178 55.0778 21.5977 55.3782 21.5977 56.1427V56.3839C21.5977 57.1504 22.7612 57.9997 23.5324 57.9997H56.4669C57.2342 57.9997 58.4016 57.1504 58.4016 56.3839V56.1427C58.4016 55.3782 57.7433 55.0542 57.006 54.9125C56.2729 54.7685 55.3077 54.5653 55.3077 54.5653C55.4912 54.4023 55.5952 54.1797 55.5952 53.8643H55.5955ZM18.5018 40.8535C18.5018 36.794 21.4146 33.3168 25.4293 32.5863L27.2171 32.2623L27.4579 30.4708C27.9182 27.0593 30.8778 24.4863 34.3468 24.4863C35.8597 24.4863 37.2962 24.9608 38.5021 25.8563L40.0002 26.968L41.4982 25.8563C42.7042 24.9605 44.1406 24.4863 45.6535 24.4863C49.1225 24.4863 52.0824 27.0593 52.5425 30.4708L52.7832 32.2623L54.571 32.5863C58.5857 33.3168 61.4985 36.794 61.4985 40.8535C61.4985 44.6057 59.0148 47.7901 55.5962 48.8694V36.7093C55.5962 35.9428 54.9718 35.3223 54.2048 35.3985H44.1976L45.4793 37.4591H53.4142V53.4581H26.5842V37.4591H34.521L35.8027 35.3985H25.9489C25.1816 35.3985 24.3998 35.9428 24.3998 36.7093V48.8688C20.9835 47.7881 18.5015 44.6047 18.5015 40.8539L18.5018 40.8535ZM37.5392 34.4383L30.3292 46.029C29.1377 47.9442 30.5241 50.4158 32.7898 50.4158H47.2102C49.4759 50.4158 50.8623 47.9445 49.6708 46.029L42.4608 34.4383C41.3303 32.6207 38.6701 32.6207 37.5395 34.4383H37.5392ZM40.7059 35.5164L47.9159 47.1071C48.1389 47.4654 48.0233 47.7845 47.9347 47.9423C47.8461 48.1003 47.634 48.3654 47.2102 48.3654H32.7898C32.3657 48.3654 32.1536 48.1 32.065 47.9423C31.9764 47.7842 31.8611 47.4654 32.0841 47.1071L39.2941 35.5164C39.5055 35.176 39.8273 35.1249 39.9998 35.1249C40.1724 35.1249 40.4941 35.1757 40.7056 35.516L40.7059 35.5164ZM41.2315 39.9234L40.9591 43.3961C40.9203 43.8939 40.5024 44.2778 40.0002 44.2778C39.498 44.2778 39.0801 43.8939 39.0412 43.3961L38.7689 39.9234C38.7129 39.21 39.2803 38.6006 40.0002 38.6006C40.72 38.6006 41.2875 39.21 41.2318 39.9234H41.2315ZM41.1811 46.3101C41.1811 46.9208 40.698 47.4203 39.9998 47.4203C39.3017 47.4203 38.8189 46.9208 38.8189 46.3101C38.8189 45.6995 39.302 45.2184 39.9998 45.2184C40.6977 45.2184 41.1811 45.6906 41.1811 46.3101Z" fill="#181D27"/>
<path d="M37.6468 34.3633L30.4368 45.9539C29.2453 47.8691 30.6318 50.3407 32.8975 50.3407H47.3178C49.5835 50.3407 50.9699 47.8695 49.7785 45.9539L42.5685 34.3633C41.4379 32.5456 38.7774 32.5456 37.6468 34.3633ZM40.8135 35.4413L48.0236 47.032C48.2465 47.3903 48.1309 47.7094 48.0423 47.8672C47.9537 48.0253 47.7417 48.2903 47.3178 48.2903H32.8975C32.4733 48.2903 32.2612 48.0249 32.1726 47.8672C32.084 47.7091 31.9688 47.3903 32.1917 47.032L39.4018 35.4413C39.6132 35.1009 39.9349 35.0499 40.1075 35.0499C40.28 35.0499 40.6021 35.1009 40.8135 35.4413ZM41.3391 39.8483L41.0668 43.321C41.0279 43.8188 40.61 44.2027 40.1078 44.2027C39.6056 44.2027 39.1877 43.8188 39.1488 43.321L38.8765 39.8483C38.8205 39.1349 39.3879 38.5255 40.1078 38.5255C40.8277 38.5255 41.3948 39.1349 41.3391 39.8483ZM41.2887 46.2351C41.2887 46.8458 40.8056 47.3452 40.1075 47.3452C39.4093 47.3452 38.9266 46.8458 38.9266 46.2351C38.9266 45.6244 39.4097 45.1433 40.1075 45.1433C40.8053 45.1433 41.2887 45.6155 41.2887 46.2351Z" fill="#D92D20"/>
</svg>
