<svg xmlns="http://www.w3.org/2000/svg" width="24" height="24" viewBox="0 0 24 24">
    <path d="M50-789.318a3.72 3.72 0 0 0 2.736-1.128 3.733 3.733 0 0 0 1.125-2.739 3.72 3.72 0 0 0-1.128-2.736A3.733 3.733 0 0 0 50-797.045a3.72 3.72 0 0 0-2.736 1.128 3.733 3.733 0 0 0-1.125 2.739 3.72 3.72 0 0 0 1.128 2.736A3.733 3.733 0 0 0 50-789.318zm-.008-1.318a2.442 2.442 0 0 1-1.8-.744 2.469 2.469 0 0 1-.739-1.807 2.442 2.442 0 0 1 .744-1.8 2.469 2.469 0 0 1 1.807-.739 2.442 2.442 0 0 1 1.8.744 2.469 2.469 0 0 1 .739 1.807 2.443 2.443 0 0 1-.744 1.8 2.469 2.469 0 0 1-1.804.739zm.008 4.272a10.187 10.187 0 0 1-6-1.886 11.492 11.492 0 0 1-4-4.932 11.491 11.491 0 0 1 4-4.932A10.186 10.186 0 0 1 50-800a10.186 10.186 0 0 1 6 1.886 11.491 11.491 0 0 1 4 4.932 11.492 11.492 0 0 1-4 4.932 10.187 10.187 0 0 1-6 1.886z" transform="translate(-38 805)" style="fill:#4e4e4e" data-name="Group 27386"/>
</svg>
