<svg xmlns="http://www.w3.org/2000/svg" width="20" height="20" viewBox="0 0 20 20">
    <path d="m67.929-829.906-3.838-3.794a10.882 10.882 0 0 1-1.622.377 11.015 11.015 0 0 1-1.668.126 10.074 10.074 0 0 1-5.6-1.645 11.6 11.6 0 0 1-3.975-4.341 1.825 1.825 0 0 1-.171-.423 1.742 1.742 0 0 1-.057-.445 1.743 1.743 0 0 1 .057-.445 1.825 1.825 0 0 1 .171-.423q.5-.891 1.074-1.736a7.842 7.842 0 0 1 1.325-1.508l-2.513-2.559L52.394-848l16.815 16.815zm-7.129-6.031q.251 0 .48-.023a2.434 2.434 0 0 0 .457-.091l-4.937-4.935a2.428 2.428 0 0 0-.091.457q-.023.228-.023.48a3.966 3.966 0 0 0 1.2 2.913 3.966 3.966 0 0 0 2.914 1.199zm6.671.411-2.9-2.879a4.874 4.874 0 0 0 .251-.8 3.886 3.886 0 0 0 .091-.845 3.966 3.966 0 0 0-1.2-2.913 3.966 3.966 0 0 0-2.913-1.2 3.886 3.886 0 0 0-.845.091 3.819 3.819 0 0 0-.8.274l-2.33-2.33a10.63 10.63 0 0 1 1.953-.583 10.519 10.519 0 0 1 2.022-.189 10.079 10.079 0 0 1 5.609 1.656 11.655 11.655 0 0 1 3.987 4.352 1.441 1.441 0 0 1 .171.4 1.743 1.743 0 0 1 .057.445 2.155 2.155 0 0 1-.046.445 1.224 1.224 0 0 1-.16.4 12.985 12.985 0 0 1-1.268 2.01 8.934 8.934 0 0 1-1.678 1.666zm-4.227-4.2-2.744-2.745a2.122 2.122 0 0 1 1.154.091 2.328 2.328 0 0 1 .948.64 2.463 2.463 0 0 1 .56.937 2.232 2.232 0 0 1 .084 1.073z" transform="translate(-50.813 849.005)" style="fill:#161616" data-name="Group 27535"/>
</svg>
