<svg width="21" height="20" viewBox="0 0 21 20" fill="none" xmlns="http://www.w3.org/2000/svg">
<mask id="mask0_7544_3639" style="mask-type:alpha" maskUnits="userSpaceOnUse" x="0" y="0" width="21" height="20">
<rect x="0.5" width="20" height="20" fill="#D9D9D9"/>
</mask>
<g mask="url(#mask0_7544_3639)">
<path d="M9.98725 16.25C9.7778 16.25 9.60259 16.1794 9.46162 16.0383C9.32051 15.8974 9.24995 15.7222 9.24995 15.5127V10.6892L4.58495 4.76292C4.42468 4.54917 4.40141 4.32694 4.51516 4.09625C4.62905 3.86542 4.82114 3.75 5.09141 3.75H15.9085C16.1788 3.75 16.3709 3.86542 16.4847 4.09625C16.5985 4.32694 16.5752 4.54917 16.415 4.76292L11.75 10.6892V15.5127C11.75 15.7222 11.6794 15.8974 11.5383 16.0383C11.3973 16.1794 11.2221 16.25 11.0127 16.25H9.98725ZM10.5 10.25L14.625 5H6.37495L10.5 10.25Z" fill="#4056F4"/>
</g>
</svg>
