<svg width="19" height="21" viewBox="0 0 19 21" fill="none" xmlns="http://www.w3.org/2000/svg">
<path d="M6.78488 14.625C10.5325 14.625 13.5706 11.547 13.5706 7.75C13.5706 7.31968 13.5316 6.89859 13.4569 6.49017C13.0538 6.41454 12.6382 6.375 12.2134 6.375C8.4658 6.375 5.42773 9.45304 5.42773 13.25C5.42773 13.6803 5.46676 14.1014 5.54141 14.5098C5.94453 14.5855 6.36014 14.625 6.78488 14.625Z" fill="#175CD3"/>
<path fill-rule="evenodd" clip-rule="evenodd" d="M5.54225 14.5098C2.38846 13.9181 0 11.1166 0 7.75C0 3.95304 3.03807 0.875 6.78572 0.875C10.1086 0.875 12.8737 3.29489 13.4578 6.49017C13.0546 6.41454 12.639 6.375 12.2143 6.375C8.46664 6.375 5.42857 9.45304 5.42857 13.25C5.42857 13.6803 5.46759 14.1014 5.54225 14.5098Z" fill="#1570EF"/>
<path fill-rule="evenodd" clip-rule="evenodd" d="M6.78643 14.6251C10.5341 14.6251 13.5721 11.547 13.5721 7.75006C13.5721 7.31974 13.5331 6.89865 13.4585 6.49023C16.6123 7.08198 19.0007 9.88342 19.0007 13.2501C19.0007 17.047 15.9627 20.1251 12.215 20.1251C8.89209 20.1251 6.12703 17.7052 5.54297 14.5099C5.94608 14.5855 6.3617 14.6251 6.78643 14.6251Z" fill="#2E90FA"/>
</svg>
