                  <svg
                            class="w-5 h-5 mr-2 cursor-pointer text-teal-500 fill-current"
                            xmlns="http://www.w3.org/2000/svg"
                            width="18"
                            height="18"
                            viewBox="0 0 18 18"
                            fill="rgb(20, 184, 166)"
                          >
                            <g data-name="vuesax/bold/folder-2">
                              <path
                                d="M5.565 1.988a2.557 2.557 0 0 0-.5-.165 4.026 4.026 0 0 0-1.14-.158H1.267L.292.368A4.485 4.485 0 0 0 0 0h2.535a3.3 3.3 0 0 1 3.03 1.988z"
                                transform="translate(9.255 1.5)"
                              />
                              <path
                                data-name="Vector"
                                d="M13.605 3.405a3.135 3.135 0 0 0-1.087-.5 3.1 3.1 0 0 0-.833-.113H8.9c-.435 0-.465-.037-.7-.345l-1.05-1.4A2.15 2.15 0 0 0 5.055 0h-1.74A3.316 3.316 0 0 0 0 3.315v8.37A3.316 3.316 0 0 0 3.315 15h8.37A3.316 3.316 0 0 0 15 11.685v-5.58a3.293 3.293 0 0 0-1.395-2.7zm-4.312 7.35H5.7a.525.525 0 0 1 0-1.05h3.593a.525.525 0 0 1 0 1.05z"
                                transform="translate(1.5 1.5)"
                              />
                            </g>
                          </svg>