<svg
class="w-5 h-5 mr-2 cursor-pointer text-blue-500 fill-current"
xmlns="http://www.w3.org/2000/svg"
width="18"
height="18"
viewBox="0 0 18 18"
fill = "rgb(59, 130, 246)"
>
<path
    d="M14.213 1.6a3.2 3.2 0 0 0-.81-.81A4.607 4.607 0 0 0 10.642 0H4.358a4.262 4.262 0 0 0-.443.022C1.455.18 0 1.777 0 4.358v6.285A4.607 4.607 0 0 0 .787 13.4a3.2 3.2 0 0 0 .81.81 4.334 4.334 0 0 0 2.317.772c.142.008.293.015.443.015h6.285A4 4 0 0 0 15 10.642V4.358a4.607 4.607 0 0 0-.787-2.758zm-1.65 3.577a.563.563 0 0 1-1.125 0V4.29A.435.435 0 0 0 11 3.855H8.063v7.29H9.4a.563.563 0 0 1 0 1.125H5.6a.562.562 0 0 1 0-1.125h1.338v-7.29H4a.435.435 0 0 0-.435.435v.885a.563.563 0 0 1-1.125 0V4.29A1.559 1.559 0 0 1 4 2.73h7a1.559 1.559 0 0 1 1.56 1.56v.885z"
    transform="translate(1.5 1.5)"
    data-name="vuesax/bold/text"
/>
</svg>