           <svg
                       
                            xmlns="http://www.w3.org/2000/svg"
                            width="15.68"
                            height="16.342"
                            viewBox="0 0 15.68 16.342"
                          >
                            <g data-name="Group 14445">
                              <g data-name="Group 14444">
                                <path
                                  data-name="Path 12487"
                                  d="M26.418 13.074h.088l4.262-.928a.42.42 0 0 0 .221-.11l7.221-7.221a2.783 2.783 0 0 0 .817-1.988 2.871 2.871 0 0 0-.817-2.01A2.782 2.782 0 0 0 36.223 0a2.716 2.716 0 0 0-1.988.84l-7.2 7.221a.4.4 0 0 0-.133.2l-.927 4.262a.486.486 0 0 0 .133.42.442.442 0 0 0 .31.131zM36.223.884a1.921 1.921 0 0 1 1.921 1.921v.022a1.855 1.855 0 0 1-.552 1.347l-2.716-2.738a1.9 1.9 0 0 1 1.347-.552zm-1.965 1.192 2.716 2.716-6.294 6.273-2.716-2.695zM27.61 9.254l2.19 2.186-2.8.618z"
                                  transform="translate(-25.203)"
                                  style="fill: #636a82"
                                />
                                <path
                                  data-name="Path 12488"
                                  d="M23.076 365.717H8.28a.442.442 0 0 0 0 .883h14.8a.442.442 0 0 0 0-.883z"
                                  transform="translate(-7.838 -350.258)"
                                  style="fill: #636a82"
                                />
                              </g>
                            </g>
                          </svg>