                            <svg
                              class="w-5 h-5 mr-2 cursor-pointer"
                              xmlns="http://www.w3.org/2000/svg"
                              width="18.556"
                              height="18.786"
                              viewBox="0 0 18.556 18.786"
                            >
                              <path
                                d="M17.478 26.886a9.394 9.394 0 1 1 9.278-9.393 9.336 9.336 0 0 1-9.278 9.393zm0-17.8a8.372 8.372 0 1 0 8.269 8.371 8.352 8.352 0 0 0-8.269-8.371z"
                                transform="translate(-8.2 -8.1)"
                                style="fill: #636a82"
                              />
                              <path
                                d="m20.529 29.329-.729-.747 8.669-8.882.729.747-8.669 8.882"
                                transform="translate(-15.241 -15.141)"
                                style="fill: #636a82"
                              />
                              <path
                                d="M28.469 29.329 19.8 20.447l.729-.747 8.671 8.882-.729.747"
                                transform="translate(-15.241 -15.141)"
                                style="fill: #636a82"
                              />
                            </svg>