       <svg
                            class="w-5 h-5 mr-2 cursor-pointer text-purple-700 fill-current"
                            xmlns="http://www.w3.org/2000/svg"
                            width="18"
                            height="18"
                            viewBox="0 0 18 18"
                            fill = "#42c952"
                          >
                            <g data-name="vuesax/bold/box">
                              <path
                                d="M12.7 4.363 6.926 7.708a.773.773 0 0 1-.765 0L.386 4.363a.761.761 0 0 1-.2-1.155 2.691 2.691 0 0 1 .727-.593L4.976.366a3.575 3.575 0 0 1 3.15 0l4.065 2.25a2.839 2.839 0 0 1 .727.593.774.774 0 0 1-.218 1.154z"
                                transform="translate(2.456 1.502)"
                              />
                              <path
                                data-name="Vector"
                                d="M6.9 3.9v5.119a.758.758 0 0 1-1.088.7c-1.545-.76-4.147-2.178-4.147-2.178A3.675 3.675 0 0 1 0 4.646V.776A.759.759 0 0 1 1.133.1l5.392 3.129A.807.807 0 0 1 6.9 3.9z"
                                transform="translate(1.673 6.701)"
                              />
                              <path
                                data-name="Vector"
                                d="M0 3.9v5.119a.758.758 0 0 0 1.088.7c1.545-.757 4.147-2.175 4.147-2.175A3.675 3.675 0 0 0 6.9 4.646V.776A.759.759 0 0 0 5.768.1L.375 3.229A.807.807 0 0 0 0 3.9z"
                                transform="translate(9.427 6.701)"
                              />
                            </g>
                          </svg>