<svg
class="w-5 h-5 mr-2 cursor-pointer text-red-600 fill-current"
xmlns="http://www.w3.org/2000/svg"
width="18"
height="18"
viewBox="0 0 18 18"
fill = "rgb(220, 38, 38)"
>
<g data-name="vuesax/bold/calendar-2">
<path
data-name="Vector"
d="M10.283 1.732V.563a.562.562 0 0 0-1.125 0v1.125H4.283V.563a.563.563 0 0 0-1.125 0v1.17A3.186 3.186 0 0 0 0 4.92a.377.377 0 0 0 .375.4h12.69a.372.372 0 0 0 .375-.4 3.186 3.186 0 0 0-3.157-3.188z"
transform="translate(2.279 .938)"
/>
<path
data-name="Vector"
d="M12.75 0h-12A.752.752 0 0 0 0 .75v4.62c0 2.25 1.125 3.75 3.75 3.75h6c2.625 0 3.75-1.5 3.75-3.75V.75a.752.752 0 0 0-.75-.75zM4.658 6.277a.866.866 0 0 1-.248.158.707.707 0 0 1-.57 0 .866.866 0 0 1-.247-.158.761.761 0 0 1 0-1.065.866.866 0 0 1 .247-.158.75.75 0 0 1 .57 0 .866.866 0 0 1 .248.158.761.761 0 0 1 0 1.065zM4.815 3.4a.866.866 0 0 1-.157.247.866.866 0 0 1-.248.158.707.707 0 0 1-.57 0 .866.866 0 0 1-.247-.158.866.866 0 0 1-.158-.247.707.707 0 0 1 0-.57.866.866 0 0 1 .158-.247.866.866 0 0 1 .247-.153.75.75 0 0 1 .57 0 .866.866 0 0 1 .248.158.866.866 0 0 1 .157.247.707.707 0 0 1 0 .57zm2.468.247a.866.866 0 0 1-.248.158.707.707 0 0 1-.57 0 .866.866 0 0 1-.248-.158.761.761 0 0 1 0-1.065.866.866 0 0 1 .248-.158.687.687 0 0 1 .57 0 .866.866 0 0 1 .248.158.761.761 0 0 1 0 1.065z"
transform="translate(2.25 7.38)"
/>
</g>
</svg>