<svg xmlns="http://www.w3.org/2000/svg" width="49.382" height="43.309" viewBox="0 0 49.382 43.309">
    <g data-name="Group 22277">
        <path data-name="Path 38764" d="M49.382 2.4v38.509a2.44 2.44 0 0 1-2.477 2.4H2.477A2.44 2.44 0 0 1 0 40.909V2.4A2.44 2.44 0 0 1 2.477 0h44.428a2.44 2.44 0 0 1 2.477 2.4" transform="translate(0 -.001)" style="fill:#4670ea"/>
        <path data-name="Path 38765" d="M49.382 2.4v4.438H0V2.4A2.44 2.44 0 0 1 2.477 0h44.428a2.44 2.44 0 0 1 2.477 2.4" transform="translate(0 -.001)" style="fill:#002cac"/>
        <path data-name="Path 38766" d="M65.277 80.039a.865.865 0 1 1-.864-.909.888.888 0 0 1 .864.909" transform="translate(-61.533 -76.621)" style="fill:#87a4c8"/>
        <path data-name="Path 38767" d="M163.477 80.039a.865.865 0 1 1-.864-.909.888.888 0 0 1 .864.909" transform="translate(-156.619 -76.621)" style="fill:#afc2db"/>
        <path data-name="Path 38768" d="M260.984 80.039a.865.865 0 1 1-.864-.909.888.888 0 0 1 .864.909" transform="translate(-251.034 -76.621)" style="fill:#d7e1ed"/>
        <path data-name="Path 38769" d="M98.8 821.456H81.265a3.461 3.461 0 0 1 0-6.922H98.8a3.461 3.461 0 1 1 0 6.922" transform="translate(-75.337 -785.095)" style="fill:#f6a907"/>
        <path data-name="Path 38770" d="M146.51 856.287a2.207 2.207 0 1 0 2.207-2.207 2.207 2.207 0 0 0-2.207 2.207" transform="translate(-142.766 -823.387)" style="fill:#fff"/>
        <path data-name="Path 38771" d="M541.456 848.57a.468.468 0 0 0 .14.334l2.479 2.455a.477.477 0 0 0 .329.138.469.469 0 0 0 .055 0 .478.478 0 0 0 .337-.138l3.982-3.943a.469.469 0 0 0 0-.668.48.48 0 0 0-.674 0l-3.666 3.631-2.167-2.146a.48.48 0 0 0-.674 0 .469.469 0 0 0-.14.334" transform="translate(-524.286 -816.157)" style="fill:#e7edf4"/>
        <path data-name="Path 38772" d="M98.8 554.851H81.265a3.461 3.461 0 0 1-3.465-3.461 3.461 3.461 0 0 1 3.461-3.461H98.8a3.461 3.461 0 0 1 3.461 3.461 3.461 3.461 0 0 1-3.461 3.461" transform="translate(-75.337 -528.749)" style="fill:#a5bcff"/>
        <path data-name="Path 38773" d="M146.51 589.682a2.207 2.207 0 1 0 2.207-2.207 2.207 2.207 0 0 0-2.207 2.207" transform="translate(-142.766 -567.041)" style="fill:#4670ea"/>
        <path data-name="Path 38776" d="M98.8 288.246H81.265a3.461 3.461 0 0 1-3.461-3.461 3.461 3.461 0 0 1 3.461-3.461H98.8a3.461 3.461 0 0 1 3.461 3.461 3.461 3.461 0 0 1-3.461 3.461" transform="translate(-75.337 -272.403)" style="fill:#a5bcff"/>
        <path data-name="Path 38777" d="M146.51 323.077a2.207 2.207 0 1 0 2.207-2.207 2.207 2.207 0 0 0-2.207 2.207" transform="translate(-142.766 -310.695)" style="fill:#4670ea"/>
        <path data-name="Rectangle 8851" style="fill:none" d="M0 0h49.382v43.309H0z"/>
    </g>
</svg>
