                          <svg
                        
                            xmlns="http://www.w3.org/2000/svg"
                            width="18"
                            height="18"
                            viewBox="0 0 18 18"
                            fill="rgb(250, 204, 21)"
                          >
                            <g data-name="vuesax/bold/text">
                              <path
                                d="M14.213 1.6a3.2 3.2 0 0 0-.81-.81A4.607 4.607 0 0 0 10.642 0H4.358a4.262 4.262 0 0 0-.443.022C1.455.18 0 1.777 0 4.358v6.285A4.607 4.607 0 0 0 .787 13.4a3.2 3.2 0 0 0 .81.81 4.334 4.334 0 0 0 2.317.772c.142.008.293.015.443.015h6.285A4 4 0 0 0 15 10.642V4.358a4.607 4.607 0 0 0-.787-2.758z"
                                transform="translate(1.5 1.5)"
                              />
                              <path
                                data-name="Subtraction 30"
                                d="M2.14 8.963H2a.51.51 0 0 1-.311-.211.518.518 0 0 1-.078-.385l.225-1.35H.51a.508.508 0 0 1-.44-.256.494.494 0 0 1 0-.506A.5.5 0 0 1 .51 6h1.545l.584-3.016H1.3a.508.508 0 0 1-.44-.762.518.518 0 0 1 .44-.255h1.546L3.138.426a.539.539 0 0 1 .34-.4A.532.532 0 0 1 3.653 0a.54.54 0 0 1 .34.129.516.516 0 0 1 .17.488v.02L3.9 1.968h2.988L7.179.426a.517.517 0 0 1 .851-.3.518.518 0 0 1 .17.491l-.273 1.351H9.3l.037-.012a.507.507 0 0 1-.024 1.014H7.768l-.589 3.016h1.339a.5.5 0 0 1 .44.254.5.5 0 0 1 0 .508.5.5 0 0 1-.44.252H6.973L6.68 8.545a.508.508 0 0 1-.5.41h-.124a.5.5 0 0 1-.385-.595l.266-1.35H2.931l-.292 1.543a.5.5 0 0 1-.177.3.511.511 0 0 1-.322.11zM3.7 2.984 3.116 6h3L6.7 2.984z"
                                transform="translate(4.091 4.519)"
                                style="fill: #fff"
                              />
                            </g>
                          </svg>