            <svg 
                          
                            xmlns="http://www.w3.org/2000/svg"
                            width="28"
                            height="28"
                            viewBox="0 0 28 28"
                          >
                            <defs>
                              <style>
                                .cls-2 {
                                  fill: #646a80;
                                }
                              </style>
                            </defs>
                            <g
                              id="Group_12798"
                              transform="translate(-1386 -324)"
                            >
                              <g
                                id="Rectangle_4034"
                                fill="#fff"
                                stroke="#646a80"
                                transform="translate(1386 324)"
                              >
                                <rect
                                  width="28"
                                  height="28"
                                  stroke="none"
                                  rx="6"
                                />
                                <rect
                                  width="27"
                                  height="27"
                                  x=".5"
                                  y=".5"
                                  fill="none"
                                  rx="5.5"
                                />
                              </g>
                              <g id="trash" transform="translate(1346 330.121)">
                                <path
                                  id="Path_2342"
                                  d="M59.378 1.937h-2.663v-.484A1.454 1.454 0 0 0 55.263 0h-1.937a1.454 1.454 0 0 0-1.453 1.453v.484H49.21A1.212 1.212 0 0 0 48 3.147v1.695a.484.484 0 0 0 .484.484h.265l.418 8.784a1.451 1.451 0 0 0 1.451 1.383h7.353a1.451 1.451 0 0 0 1.451-1.383l.418-8.784h.26a.484.484 0 0 0 .484-.484V3.147a1.212 1.212 0 0 0-1.206-1.21zm-6.536-.484a.485.485 0 0 1 .484-.484h1.937a.485.485 0 0 1 .484.484v.484h-2.905zm-3.874 1.694a.242.242 0 0 1 .242-.242h10.168a.242.242 0 0 1 .242.242v1.21H48.968zm9.486 10.917a.484.484 0 0 1-.484.461h-7.352a.484.484 0 0 1-.484-.461l-.416-8.738h9.152z"
                                  class="cls-2"
                                />
                                <path
                                  id="Path_2343"
                                  d="M240.484 215.263a.484.484 0 0 0 .484-.484v-6.294a.484.484 0 1 0-.968 0v6.294a.484.484 0 0 0 .484.484z"
                                  class="cls-2"
                                  transform="translate(-186.19 -201.706)"
                                />
                                <path
                                  id="Path_2344"
                                  d="M320.484 215.263a.484.484 0 0 0 .484-.484v-6.294a.484.484 0 1 0-.968 0v6.294a.484.484 0 0 0 .484.484z"
                                  class="cls-2"
                                  transform="translate(-263.769 -201.706)"
                                />
                                <path
                                  id="Path_2345"
                                  d="M160.484 215.263a.484.484 0 0 0 .484-.484v-6.294a.484.484 0 1 0-.968 0v6.294a.484.484 0 0 0 .484.484z"
                                  class="cls-2"
                                  transform="translate(-108.611 -201.706)"
                                />
                              </g>
                            </g>
                          </svg>