<svg width="20" height="20" viewBox="0 0 20 20" fill="none" xmlns="http://www.w3.org/2000/svg">
<mask id="mask0_1526_5562" style="mask-type:alpha" maskUnits="userSpaceOnUse" x="0" y="0" width="20" height="20">
<rect width="20" height="20" fill="#D9D9D9"/>
</mask>
<g mask="url(#mask0_1526_5562)">
<path d="M3.33398 17.5C2.63954 17.5 2.04926 17.2569 1.56315 16.7708C1.07704 16.2847 0.833984 15.6944 0.833984 15C0.833984 14.3056 1.07704 13.7153 1.56315 13.2292C2.04926 12.7431 2.63954 12.5 3.33398 12.5C3.45898 12.5 3.58051 12.5104 3.69857 12.5312C3.81662 12.5521 3.93121 12.5764 4.04232 12.6042L7.41732 7.95833C7.18121 7.66667 6.99718 7.34028 6.86523 6.97917C6.73329 6.61806 6.66732 6.23611 6.66732 5.83333C6.66732 4.91667 6.99371 4.13194 7.64648 3.47917C8.29926 2.82639 9.08398 2.5 10.0007 2.5C10.9173 2.5 11.702 2.82639 12.3548 3.47917C13.0076 4.13194 13.334 4.91667 13.334 5.83333C13.334 6.23611 13.2645 6.61806 13.1257 6.97917C12.9868 7.34028 12.7993 7.66667 12.5632 7.95833L15.959 12.6042C16.0701 12.5764 16.1847 12.5521 16.3027 12.5312C16.4208 12.5104 16.5423 12.5 16.6673 12.5C17.3618 12.5 17.952 12.7431 18.4382 13.2292C18.9243 13.7153 19.1673 14.3056 19.1673 15C19.1673 15.6944 18.9243 16.2847 18.4382 16.7708C17.952 17.2569 17.3618 17.5 16.6673 17.5C15.9729 17.5 15.3826 17.2569 14.8965 16.7708C14.4104 16.2847 14.1673 15.6944 14.1673 15C14.1673 14.7361 14.2055 14.4826 14.2819 14.2396C14.3583 13.9965 14.4659 13.7778 14.6048 13.5833L11.2298 8.9375C11.1604 8.96528 11.0944 8.98611 11.0319 9C10.9694 9.01389 10.9034 9.03472 10.834 9.0625V12.6458C11.3201 12.8125 11.7194 13.1111 12.0319 13.5417C12.3444 13.9722 12.5007 14.4583 12.5007 15C12.5007 15.6944 12.2576 16.2847 11.7715 16.7708C11.2854 17.2569 10.6951 17.5 10.0007 17.5C9.30621 17.5 8.71593 17.2569 8.22982 16.7708C7.74371 16.2847 7.50065 15.6944 7.50065 15C7.50065 14.4583 7.6569 13.9757 7.9694 13.5521C8.2819 13.1285 8.68121 12.8264 9.16732 12.6458V9.0625C9.09787 9.03472 9.0319 9.01389 8.9694 9C8.9069 8.98611 8.84093 8.96528 8.77149 8.9375L5.39648 13.5833C5.53537 13.7778 5.64301 13.9965 5.7194 14.2396C5.79579 14.4826 5.83398 14.7361 5.83398 15C5.83398 15.6944 5.59093 16.2847 5.10482 16.7708C4.61871 17.2569 4.02843 17.5 3.33398 17.5Z" fill="#EF6820"/>
</g>
</svg>
