<svg width="20" height="20" viewBox="0 0 20 20" fill="none" xmlns="http://www.w3.org/2000/svg">
<mask id="mask0_1526_5540" style="mask-type:alpha" maskUnits="userSpaceOnUse" x="0" y="0" width="20" height="20">
<rect width="20" height="20" fill="#D9D9D9"/>
</mask>
<g mask="url(#mask0_1526_5540)">
<path d="M12.5007 16.6666C10.6395 16.6666 9.06315 16.0208 7.77148 14.7291C6.47982 13.4374 5.83398 11.861 5.83398 9.99992C5.83398 8.13881 6.47982 6.56242 7.77148 5.27075C9.06315 3.97909 10.6395 3.33325 12.5007 3.33325C14.3618 3.33325 15.9382 3.97909 17.2298 5.27075C18.5215 6.56242 19.1673 8.13881 19.1673 9.99992C19.1673 11.861 18.5215 13.4374 17.2298 14.7291C15.9382 16.0208 14.3618 16.6666 12.5007 16.6666ZM5.83398 16.4583C4.36176 16.0694 3.16037 15.2777 2.22982 14.0833C1.29926 12.8888 0.833984 11.5277 0.833984 9.99992C0.833984 8.47214 1.29926 7.11103 2.22982 5.91658C3.16037 4.72214 4.36176 3.93047 5.83398 3.54159V5.29159C4.83398 5.63881 4.02843 6.24297 3.41732 7.10408C2.80621 7.9652 2.50065 8.93047 2.50065 9.99992C2.50065 11.0694 2.80621 12.0346 3.41732 12.8958C4.02843 13.7569 4.83398 14.361 5.83398 14.7083V16.4583Z" fill="#06AED4"/>
</g>
</svg>
