<svg width="20" height="20" viewBox="0 0 20 20" fill="none" xmlns="http://www.w3.org/2000/svg">
<path d="M7.50033 11.4584C5.55033 11.4584 1.66699 12.4334 1.66699 14.375V15.8334H13.3337V14.375C13.3337 12.4334 9.45033 11.4584 7.50033 11.4584ZM3.61699 14.1667C4.31699 13.6834 6.00866 13.125 7.50033 13.125C8.99199 13.125 10.6837 13.6834 11.3837 14.1667H3.61699ZM7.50033 10C9.10866 10 10.417 8.69169 10.417 7.08335C10.417 5.47502 9.10866 4.16669 7.50033 4.16669C5.89199 4.16669 4.58366 5.47502 4.58366 7.08335C4.58366 8.69169 5.89199 10 7.50033 10ZM7.50033 5.83335C8.19199 5.83335 8.75033 6.39169 8.75033 7.08335C8.75033 7.77502 8.19199 8.33335 7.50033 8.33335C6.80866 8.33335 6.25033 7.77502 6.25033 7.08335C6.25033 6.39169 6.80866 5.83335 7.50033 5.83335ZM13.367 11.5084C14.3337 12.2084 15.0003 13.1417 15.0003 14.375V15.8334H18.3337V14.375C18.3337 12.6917 15.417 11.7334 13.367 11.5084ZM12.5003 10C14.1087 10 15.417 8.69169 15.417 7.08335C15.417 5.47502 14.1087 4.16669 12.5003 4.16669C12.0503 4.16669 11.6337 4.27502 11.2503 4.45835C11.7753 5.20002 12.0837 6.10835 12.0837 7.08335C12.0837 8.05835 11.7753 8.96669 11.2503 9.70835C11.6337 9.89169 12.0503 10 12.5003 10Z" fill="#535862"/>
</svg>
