<svg width="230" height="76" viewBox="0 0 230 76" fill="none" xmlns="http://www.w3.org/2000/svg">
<path d="M43.665 73.0709H34.4967V19.446H43.665V73.0709ZM53.2951 34.0889C56.1313 34.0889 58.6378 34.6166 60.6825 35.6719C62.7273 36.7273 64.4422 38.0465 65.7614 39.6295C67.0806 41.2125 68.07 42.9934 68.7296 44.9062C69.3892 46.8191 69.719 48.6 69.719 50.2489V73.0709H60.5506V50.4468C60.5506 49.0617 60.3527 47.8744 59.891 46.951C59.4293 45.9616 58.8357 45.1701 58.0442 44.5105C57.2527 43.8509 56.3952 43.3892 55.3398 43.0594C54.3504 42.7296 53.2291 42.5977 52.1078 42.5977C50.9865 42.5977 49.9312 42.7296 48.8758 43.0594C47.8864 43.3892 46.963 43.8509 46.1715 44.5105C45.38 45.1701 44.7864 45.9616 44.3246 46.951C43.8629 47.9404 43.665 49.1276 43.665 50.4468V73.0709H34.4967L37.5308 51.766C37.7947 50.117 38.1245 48.2702 38.6521 46.2254C39.1139 44.1807 39.9713 42.2019 41.0926 40.421C42.2139 38.6401 43.797 37.123 45.7098 35.8698C47.6226 34.6166 50.195 34.0229 53.2951 34.0229V34.0889Z" fill="white"/>
<path d="M91.8813 73.7964C88.7153 73.7964 86.0109 73.2687 83.7683 72.2134C81.5257 71.158 79.7448 69.8389 78.2937 68.2558C76.8426 66.6728 75.8532 64.8919 75.1936 62.9791C74.534 61.0663 74.2042 59.2854 74.2042 57.6364V34.8145H83.3726V57.4385C83.3726 58.8237 83.5704 60.0109 84.0322 60.9344C84.4939 61.9238 85.0875 62.7153 85.879 63.3748C86.6705 64.0344 87.528 64.4962 88.5833 64.826C89.5727 65.1558 90.694 65.2877 91.8153 65.2877C92.9367 65.2877 93.992 65.1558 95.0473 64.826C96.0367 64.4962 96.9602 64.0344 97.7517 63.3748C98.5432 62.7153 99.1368 61.9238 99.5985 60.9344C100.06 59.945 100.258 58.7577 100.258 57.4385V34.8145H109.426V57.6364C109.426 59.3513 109.097 61.1322 108.437 62.9791C107.777 64.8919 106.788 66.6068 105.337 68.2558C103.886 69.8389 102.105 71.224 99.8624 72.2134C97.6198 73.2687 94.9154 73.7964 91.7494 73.7964H91.8813Z" fill="white"/>
<path d="M132.051 34.0889C135.217 34.0889 137.921 34.6166 140.164 35.6719C142.406 36.7273 144.187 38.0465 145.638 39.6295C147.089 41.2125 148.079 42.9934 148.738 44.9062C149.398 46.8191 149.728 48.6 149.728 50.249V73.0709H140.559V50.4468C140.559 49.0617 140.361 47.8744 139.9 46.951C139.438 45.9616 138.844 45.1701 138.053 44.5105C137.261 43.8509 136.404 43.3892 135.349 43.0594C134.359 42.7296 133.238 42.5977 132.116 42.5977C130.995 42.5977 129.94 42.7296 128.884 43.0594C127.895 43.3892 126.972 43.8509 126.18 44.5105C125.389 45.1701 124.795 45.9616 124.333 46.951C123.872 47.9404 123.674 49.1276 123.674 50.4468V73.0709H114.505V50.249C114.505 48.534 114.835 46.7531 115.495 44.9062C116.154 42.9934 117.144 41.2785 118.595 39.6295C120.046 38.0465 121.827 36.6613 124.069 35.6719C126.312 34.6166 128.95 34.0889 132.182 34.0889H132.051Z" fill="white"/>
<path d="M230 66.9366H202.165V75.3794H230V66.9366Z" fill="white"/>
<path d="M174.99 35.2102C163.711 35.2102 154.609 44.3126 154.609 55.5257C154.609 58.6258 155.334 61.7259 156.653 64.4962C157.973 67.1345 159.885 69.7729 162.062 71.6198C167.669 76.4348 176.441 77.6221 181.784 71.7517C184.224 69.0473 185.412 65.4855 185.016 61.9897C184.356 55.5257 179.146 50.4468 173.143 50.4468V58.8896C175.188 58.8896 177.035 60.6705 177.233 62.9131C177.365 64.2983 176.639 65.4196 176.177 65.9472C173.671 68.7175 169.515 66.7388 167.141 64.826C164.503 62.7153 162.656 59.4173 162.524 55.9214C162.524 55.7895 162.524 55.7236 162.524 55.5917C162.524 48.9957 168.13 43.653 175.056 43.653C181.982 43.653 187.588 48.9957 187.588 55.5917V75.3794H195.437V55.5917C195.437 44.3786 186.269 35.2762 175.056 35.2762L174.99 35.2102Z" fill="white"/>
<path d="M28.4285 72.6751C22.2942 72.6751 17.6771 71.158 14.511 68.1899C11.345 65.2217 9.76198 60.8024 9.76198 55.064V20.1715H18.6665V54.998C18.6665 58.4279 19.392 60.8684 20.9091 62.3195C22.4262 63.7706 24.8666 64.4962 28.4285 64.4962V72.6751ZM27.1752 35.0123V43.1913H0V35.0123H27.1752Z" fill="white"/>
<path d="M216.083 62.5833C223.769 62.5833 230 56.3523 230 48.6659C230 40.9795 223.769 34.7485 216.083 34.7485C208.396 34.7485 202.165 40.9795 202.165 48.6659C202.165 56.3523 208.396 62.5833 216.083 62.5833Z" fill="white"/>
<path d="M221.142 19.3096C220.813 19.3096 220.514 19.2826 220.244 19.2287C219.974 19.1796 219.773 19.1257 219.641 19.0668L220.171 17.2639C220.573 17.3718 220.931 17.4184 221.245 17.4037C221.559 17.389 221.836 17.2712 222.077 17.0505C222.322 16.8297 222.538 16.4691 222.724 15.9687L222.996 15.2181L218.861 3.76776H221.216L224.078 12.5395H224.196L227.058 3.76776H229.421L224.763 16.5795C224.547 17.1682 224.272 17.6662 223.938 18.0733C223.605 18.4854 223.207 18.7945 222.746 19.0006C222.285 19.2066 221.75 19.3096 221.142 19.3096Z" fill="white"/>
<path d="M207.34 15.0709V0H209.541V5.60008H209.673C209.801 5.36459 209.985 5.09232 210.225 4.78324C210.466 4.47417 210.799 4.20435 211.226 3.97377C211.653 3.73829 212.217 3.62055 212.918 3.62055C213.831 3.62055 214.645 3.85113 215.362 4.31228C216.078 4.77343 216.64 5.43818 217.047 6.30652C217.459 7.17487 217.665 8.21982 217.665 9.44139C217.665 10.663 217.461 11.7104 217.054 12.5836C216.647 13.452 216.088 14.1216 215.376 14.5926C214.665 15.0586 213.853 15.2917 212.941 15.2917C212.254 15.2917 211.692 15.1764 211.255 14.9458C210.824 14.7152 210.485 14.4454 210.24 14.1363C209.995 13.8273 209.806 13.5525 209.673 13.3121H209.489V15.0709H207.34ZM209.497 9.41931C209.497 10.2141 209.612 10.9107 209.842 11.5092C210.073 12.1077 210.407 12.5763 210.843 12.9148C211.28 13.2484 211.815 13.4152 212.447 13.4152C213.105 13.4152 213.654 13.241 214.096 12.8927C214.537 12.5395 214.871 12.0611 215.097 11.4577C215.327 10.8543 215.443 10.1748 215.443 9.41931C215.443 8.67362 215.33 8.00396 215.104 7.41035C214.883 6.81674 214.55 6.34822 214.103 6.00481C213.662 5.6614 213.11 5.48969 212.447 5.48969C211.81 5.48969 211.27 5.65404 210.829 5.98274C210.392 6.31143 210.061 6.77013 209.835 7.35884C209.609 7.94754 209.497 8.63437 209.497 9.41931Z" fill="white"/>
<path d="M192.939 15.2917C192.027 15.2917 191.212 15.0586 190.496 14.5926C189.785 14.1216 189.226 13.452 188.818 12.5836C188.416 11.7104 188.215 10.663 188.215 9.44139C188.215 8.21982 188.419 7.17487 188.826 6.30652C189.238 5.43818 189.802 4.77343 190.518 4.31228C191.235 3.85113 192.046 3.62055 192.954 3.62055C193.656 3.62055 194.22 3.73829 194.647 3.97377C195.078 4.20435 195.412 4.47417 195.647 4.78324C195.888 5.09232 196.074 5.36459 196.207 5.60008H196.339V0H198.539V15.0709H196.391V13.3121H196.207C196.074 13.5525 195.883 13.8273 195.633 14.1363C195.387 14.4454 195.049 14.7152 194.617 14.9458C194.185 15.1764 193.626 15.2917 192.939 15.2917ZM193.425 13.4152C194.058 13.4152 194.593 13.2484 195.029 12.9148C195.471 12.5763 195.804 12.1077 196.03 11.5092C196.261 10.9107 196.376 10.2141 196.376 9.41931C196.376 8.63437 196.263 7.94754 196.037 7.35884C195.812 6.77013 195.481 6.31143 195.044 5.98274C194.607 5.65404 194.068 5.48969 193.425 5.48969C192.763 5.48969 192.211 5.6614 191.769 6.00481C191.328 6.34822 190.994 6.81674 190.768 7.41035C190.548 8.00396 190.437 8.67362 190.437 9.41931C190.437 10.1748 190.55 10.8543 190.776 11.4577C191.002 12.0611 191.335 12.5395 191.777 12.8927C192.223 13.241 192.773 13.4152 193.425 13.4152Z" fill="white"/>
<path d="M181.417 15.299C180.304 15.299 179.344 15.0611 178.54 14.5852C177.74 14.1044 177.122 13.4299 176.685 12.5615C176.254 11.6883 176.038 10.6654 176.038 9.4929C176.038 8.33511 176.254 7.31468 176.685 6.43162C177.122 5.54856 177.73 4.85928 178.51 4.36379C179.295 3.86829 180.213 3.62054 181.263 3.62054C181.9 3.62054 182.519 3.72602 183.117 3.93697C183.716 4.14793 184.253 4.47908 184.729 4.93042C185.204 5.38176 185.58 5.96801 185.855 6.68918C186.129 7.40544 186.267 8.27624 186.267 9.30157V10.0816H177.281V8.43322H184.11C184.11 7.85433 183.993 7.34166 183.757 6.89523C183.522 6.44388 183.191 6.08821 182.764 5.8282C182.342 5.56818 181.846 5.43818 181.277 5.43818C180.659 5.43818 180.12 5.59026 179.658 5.89442C179.202 6.19368 178.849 6.58616 178.599 7.07184C178.353 7.55262 178.231 8.07509 178.231 8.63927V9.92707C178.231 10.6826 178.363 11.3252 178.628 11.8551C178.898 12.3849 179.273 12.7897 179.754 13.0693C180.235 13.344 180.797 13.4814 181.439 13.4814C181.856 13.4814 182.236 13.4225 182.58 13.3048C182.923 13.1821 183.22 13.0006 183.47 12.7602C183.72 12.5198 183.912 12.223 184.044 11.8698L186.127 12.2451C185.96 12.8583 185.661 13.3955 185.229 13.8567C184.802 14.3129 184.265 14.6686 183.617 14.9237C182.975 15.1739 182.241 15.299 181.417 15.299Z" fill="white"/>
<path d="M168.997 15.0709V3.76773H171.124V5.56329H171.242C171.448 4.95496 171.811 4.47663 172.331 4.12832C172.856 3.77509 173.449 3.59848 174.112 3.59848C174.249 3.59848 174.411 3.60339 174.597 3.6132C174.789 3.62301 174.938 3.63527 175.046 3.64999V5.75462C174.958 5.73009 174.801 5.70311 174.575 5.67367C174.35 5.63933 174.124 5.62216 173.898 5.62216C173.378 5.62216 172.915 5.73254 172.507 5.95331C172.105 6.16917 171.786 6.47088 171.551 6.85844C171.315 7.2411 171.197 7.67773 171.197 8.16832V15.0709H168.997Z" fill="white"/>
<path d="M161.706 15.299C160.593 15.299 159.634 15.0611 158.829 14.5852C158.029 14.1044 157.411 13.4299 156.975 12.5615C156.543 11.6883 156.327 10.6654 156.327 9.4929C156.327 8.33511 156.543 7.31468 156.975 6.43162C157.411 5.54856 158.02 4.85928 158.8 4.36379C159.585 3.86829 160.502 3.62054 161.552 3.62054C162.19 3.62054 162.808 3.72602 163.406 3.93697C164.005 4.14793 164.542 4.47908 165.018 4.93042C165.494 5.38176 165.869 5.96801 166.144 6.68918C166.419 7.40544 166.556 8.27624 166.556 9.30157V10.0816H157.571V8.43322H164.4C164.4 7.85433 164.282 7.34166 164.047 6.89523C163.811 6.44388 163.48 6.08821 163.053 5.8282C162.631 5.56818 162.136 5.43818 161.567 5.43818C160.948 5.43818 160.409 5.59026 159.948 5.89442C159.491 6.19368 159.138 6.58616 158.888 7.07184C158.643 7.55262 158.52 8.07509 158.52 8.63927V9.92707C158.52 10.6826 158.653 11.3252 158.917 11.8551C159.187 12.3849 159.563 12.7897 160.043 13.0693C160.524 13.344 161.086 13.4814 161.729 13.4814C162.146 13.4814 162.526 13.4225 162.869 13.3048C163.213 13.1821 163.509 13.0006 163.76 12.7602C164.01 12.5198 164.201 12.223 164.334 11.8698L166.416 12.2451C166.249 12.8583 165.95 13.3955 165.518 13.8567C165.092 14.3129 164.554 14.6686 163.907 14.9237C163.264 15.1739 162.531 15.299 161.706 15.299Z" fill="white"/>
<path d="M142.529 15.0709L139.203 3.76776H141.477L143.692 12.0685H143.802L146.025 3.76776H148.299L150.506 12.0317H150.617L152.817 3.76776H155.091L151.772 15.0709H149.528L147.232 6.90998H147.062L144.766 15.0709H142.529Z" fill="white"/>
<path d="M132.698 15.299C131.638 15.299 130.714 15.0562 129.924 14.5705C129.134 14.0848 128.521 13.4053 128.084 12.5321C127.647 11.6588 127.429 10.6384 127.429 9.47082C127.429 8.29831 127.647 7.27298 128.084 6.39483C128.521 5.51667 129.134 4.83475 129.924 4.34907C130.714 3.86339 131.638 3.62054 132.698 3.62054C133.758 3.62054 134.682 3.86339 135.472 4.34907C136.262 4.83475 136.875 5.51667 137.312 6.39483C137.749 7.27298 137.967 8.29831 137.967 9.47082C137.967 10.6384 137.749 11.6588 137.312 12.5321C136.875 13.4053 136.262 14.0848 135.472 14.5705C134.682 15.0562 133.758 15.299 132.698 15.299ZM132.705 13.452C133.392 13.452 133.961 13.2704 134.413 12.9074C134.864 12.5444 135.198 12.0611 135.413 11.4577C135.634 10.8543 135.745 10.1895 135.745 9.46346C135.745 8.7423 135.634 8.08 135.413 7.47657C135.198 6.86824 134.864 6.38011 134.413 6.01217C133.961 5.64422 133.392 5.46025 132.705 5.46025C132.014 5.46025 131.44 5.64422 130.983 6.01217C130.532 6.38011 130.196 6.86824 129.975 7.47657C129.759 8.08 129.651 8.7423 129.651 9.46346C129.651 10.1895 129.759 10.8543 129.975 11.4577C130.196 12.0611 130.532 12.5444 130.983 12.9074C131.44 13.2704 132.014 13.452 132.705 13.452Z" fill="white"/>
<path d="M115 15.0709V0H120.372C121.544 0 122.516 0.213406 123.286 0.640218C124.056 1.06703 124.633 1.65083 125.015 2.39162C125.398 3.12751 125.589 3.9566 125.589 4.87891C125.589 5.80612 125.396 6.64012 125.008 7.38091C124.625 8.1168 124.046 8.7006 123.271 9.13232C122.501 9.55913 121.532 9.77254 120.365 9.77254H116.67V7.84452H120.159C120.899 7.84452 121.5 7.71697 121.961 7.46186C122.423 7.20185 122.761 6.84863 122.977 6.40219C123.193 5.95575 123.301 5.44799 123.301 4.87891C123.301 4.30983 123.193 3.80452 122.977 3.36299C122.761 2.92146 122.42 2.57559 121.954 2.32539C121.493 2.07519 120.885 1.95009 120.129 1.95009H117.274V15.0709H115Z" fill="white"/>
</svg>
