<svg width="18" height="18" viewBox="0 0 18 18" fill="none" xmlns="http://www.w3.org/2000/svg">
<g clip-path="url(#clip0_512_8169)">
<path d="M17.8789 7.35654C17.8789 7.35654 18.0002 8.6151 18.0002 9.03176C18.0002 9.47185 17.8789 10.7831 17.8789 10.7831C17.8787 10.7849 17.8785 10.7869 17.878 10.789C17.5942 12.755 16.8014 14.5255 15.3542 15.7982L12.3802 13.611C12.6062 13.4653 12.8209 13.3043 13.0224 13.1288C13.74 12.505 14.0875 11.7 14.248 10.789H9.22852V7.35654H17.8789Z" fill="#2683FB"/>
<path d="M15.3959 2.35405L12.7501 4.89752C11.7957 4.12049 10.6298 3.55068 9.29493 3.55068C6.84235 3.55068 4.75757 5.08896 3.99547 7.23221L0.975404 5.01149C2.49639 2.05158 5.63405 0 9.22852 0C11.5806 0 13.7661 0.927252 15.3902 2.3491C15.392 2.3509 15.3941 2.35248 15.3959 2.35428V2.35405Z" fill="#EA4335"/>
<path d="M15.3542 15.7982C15.3445 15.8068 15.3346 15.8153 15.3249 15.8239C13.7036 17.2336 11.5181 18 9.17733 18C5.58101 18 2.46779 15.9784 0.962721 13.0345L3.98786 10.8097C4.74351 12.964 6.83405 14.5128 9.29493 14.5128C10.4345 14.5128 11.4952 14.1813 12.3805 13.611L15.3544 15.7982H15.3542Z" fill="#34A853"/>
<path d="M3.98762 10.8099L0.96249 13.0347C0.34658 11.8297 0 10.4703 0 9.03176C0 7.59324 0.351883 6.225 0.975404 5.01126L3.99523 7.23221C3.79462 7.79595 3.68578 8.40135 3.68578 9.03176C3.68578 9.66216 3.79185 10.2523 3.98739 10.8097L3.98762 10.8099Z" fill="#FFBC00"/>
</g>
<defs>
<clipPath id="clip0_512_8169">
<rect width="18" height="18" fill="white"/>
</clipPath>
</defs>
</svg>
