<svg width="256" height="35" viewBox="0 0 256 35" fill="none" xmlns="http://www.w3.org/2000/svg">
<path d="M39.3332 17.0261C39.3332 19.9768 36.9386 22.3728 33.9852 22.3728C31.0346 22.3728 28.6426 19.9768 28.6426 17.0261C28.6426 14.0688 31.0346 11.6714 33.9852 11.6714C36.9386 11.6714 39.3332 14.0688 39.3332 17.0261Z" fill="black"/>
<path d="M69.1431 28.5333L75.0057 21.5453C78.5764 24.2653 82.6564 25.3906 86.5031 25.3906C88.4764 25.3906 89.3217 24.872 89.3217 23.9827V23.8882C89.3217 22.9469 88.2871 22.4322 84.7657 21.7295C77.3977 20.2308 70.9257 18.1122 70.9257 11.1722V11.0747C70.9257 4.83336 75.8097 0 84.8644 0C91.2017 0 95.8911 1.49999 99.6964 4.50532L94.3404 11.9187C91.2457 9.66534 87.5391 8.68001 84.4897 8.68001C82.8431 8.68001 82.0951 9.24668 82.0951 10.0467V10.1359C82.0951 11.0305 82.9831 11.5892 86.4591 12.2532C94.8617 13.7945 100.492 16.2439 100.492 22.8585V22.9466C100.492 29.852 94.8097 34.0746 85.9884 34.0746C79.3311 34.0746 73.3191 32.1947 69.1431 28.5333Z" fill="black"/>
<path d="M102.543 18.7262V0.611572H113.708V18.5835C113.708 22.6715 115.826 24.4009 118.779 24.4009C121.732 24.4009 123.851 22.8129 123.851 18.8236V0.611572H135.012V18.4943C135.012 29.7102 128.496 34.1183 118.682 34.1183C108.876 34.1183 102.543 29.6142 102.543 18.7262Z" fill="black"/>
<path d="M152.225 16.7042C155.045 16.7042 156.917 15.4442 156.917 13.0962V12.9986C156.917 10.6053 155.18 9.38802 152.272 9.38802H149.271V16.704L152.225 16.7042ZM138.287 0.61084H153.068C161.801 0.61084 167.76 4.50553 167.76 12.2962V12.3854C167.76 20.3214 161.704 24.5414 152.836 24.5414H149.271V33.4641H138.287V0.61084Z" fill="black"/>
<path d="M184.045 16.7042C186.857 16.7042 188.736 15.4442 188.736 13.0962V12.9986C188.736 10.6053 186.997 9.38802 184.092 9.38802H181.086V16.704L184.045 16.7042ZM170.106 0.61084H184.888C193.613 0.61084 199.58 4.50553 199.58 12.2962V12.3854C199.58 20.3214 193.524 24.5414 184.656 24.5414H181.086V33.4641H170.106V0.61084Z" fill="black"/>
<path d="M201.921 0.611328H212.906V24.0727H226.301V33.4633H201.921V0.611328Z" fill="black"/>
<path d="M232.183 21.8215L219.787 0.61084H232.086L237.715 11.4015L243.399 0.61084H255.555L243.16 21.6855V33.4642H232.183V21.8215Z" fill="black"/>
<path d="M57.856 17.0834C57.856 21.822 54.6187 23.8874 49.5933 23.8874H47.7653V10.1874H49.5933C54.6187 10.1874 57.856 12.2528 57.856 16.9874V17.0834ZM49.3613 0.611386H35.7573V8.45274C39.744 9.27407 42.736 12.798 42.736 17.0261C42.736 21.2447 39.744 24.7674 35.7573 25.5914V33.4634H48.9827C62.264 33.4634 68.9293 26.5634 68.9293 16.8461V16.758C68.9293 7.03936 62.404 0.611386 49.3613 0.611386ZM25.2387 17.0261C25.2387 12.8714 28.1307 9.40337 32.0053 8.50736V0.611328H20.5187V12.2007H11.4893V0.611328H0V33.4633H11.4893V21.686H20.5187V33.4633H32.0053V25.538C28.1307 24.638 25.2387 21.1727 25.2387 17.0261Z" fill="#FFC907"/>
<path d="M251.519 29.32H250.811V30.2827H251.536C251.904 30.2827 252.1 30.0865 252.1 29.8053C252.1 29.4799 251.879 29.32 251.519 29.32ZM252.125 30.788L252.924 31.9627H252.083L251.383 30.9053H250.811V31.9627H250.087V28.68H251.545C252.328 28.68 252.833 29.0827 252.833 29.764C252.833 30.2987 252.543 30.632 252.125 30.788ZM251.367 27.6653C249.804 27.6653 248.627 28.9027 248.627 30.42C248.627 31.9387 249.797 33.1587 251.349 33.1587C252.908 33.1587 254.085 31.92 254.085 30.4027C254.085 28.884 252.917 27.6653 251.367 27.6653ZM251.349 33.4986C249.617 33.4986 248.271 32.1093 248.271 30.42C248.271 28.7306 249.633 27.324 251.367 27.324C253.097 27.324 254.444 28.7147 254.444 30.4027C254.444 32.092 253.08 33.4986 251.349 33.4986Z" fill="black"/>
</svg>
